<svg width="278" height="214" viewBox="0 0 278 214" fill="none" xmlns="http://www.w3.org/2000/svg">
<g clip-path="url(#clip0_4199_239)">
<path d="M233.893 162.751C229.794 130.372 229.18 107.338 234.101 75.1118C238.776 44.6144 225.531 13.118 194.211 3.02195C158.127 -8.60578 133.744 15.1658 115.734 42.664C94.8905 74.4921 58.5094 78.6748 28.4778 97.9196C4.11266 113.527 -12.8325 147.16 12.7321 170.31C36.889 192.181 71.7707 184.116 101.053 183.063C137.184 181.766 156.076 206.103 188.534 212.972C220.952 219.833 237.483 191.105 233.901 162.751C232.125 148.789 235.652 176.71 233.893 162.751Z" fill="#E2E6ED"/>
<path d="M154.851 33.0447H167.83C168.31 33.048 168.77 33.241 169.108 33.5814C169.447 33.9218 169.635 34.3818 169.633 34.8604V37.2025C169.634 37.4396 169.589 37.6746 169.499 37.8942C169.409 38.1137 169.277 38.3135 169.109 38.4821C168.942 38.6507 168.742 38.7848 168.523 38.8768C168.303 38.9688 168.068 39.0168 167.83 39.0182H154.851C154.613 39.0171 154.377 38.9693 154.157 38.8774C153.938 38.7856 153.738 38.6515 153.571 38.4828C153.403 38.3142 153.27 38.1143 153.18 37.8947C153.09 37.675 153.045 37.4398 153.046 37.2025V34.8604C153.044 34.3814 153.233 33.9211 153.571 33.5807C153.91 33.2402 154.37 33.0475 154.851 33.0447Z" fill="#86A4EF"/>
<path d="M14.5066 52.4409C17.2139 44.1626 24.8129 38.5746 33.3844 38.5746H162.291C175.923 38.5746 188.994 44.1004 198.615 53.9311L243.122 99.4099C243.846 100.152 244.691 100.767 245.621 101.228L267.35 111.985C273.708 115.133 277.763 121.675 277.819 128.871L278.008 153.782C278.048 158.997 273.906 163.246 268.781 163.246H11.7432C6.6473 163.246 2.51563 159.043 2.51563 153.857V100.067C2.51401 92.8883 3.64614 85.7542 5.87054 78.9256L14.5066 52.4409Z" fill="#F0F2F5"/>
<path d="M163.403 48.7619H95.6862C91.2352 48.7619 87.627 52.3531 87.627 56.7831V145.767C87.627 150.197 91.2352 153.789 95.6862 153.789H163.403C167.854 153.789 171.462 150.197 171.462 145.767V56.7831C171.462 52.3531 167.854 48.7619 163.403 48.7619Z" fill="#F0F2F5"/>
<path d="M260.949 158.533H21.835V163.248H260.949V158.533Z" fill="#1A253F"/>
<path d="M232.945 105.311V112.173C232.945 112.85 232.674 113.5 232.193 113.978C231.712 114.457 231.06 114.726 230.38 114.727H2.45117V102.755H230.376C230.713 102.755 231.047 102.821 231.359 102.949C231.671 103.077 231.954 103.266 232.193 103.503C232.431 103.74 232.621 104.022 232.75 104.332C232.879 104.642 232.945 104.975 232.945 105.311Z" fill="#86A4EF"/>
<path d="M183.042 55.2037L187.857 56.7665C191.844 58.0605 195.427 60.3606 198.255 63.4426L219.74 86.8494C220.494 87.6706 220.912 88.7425 220.912 89.8548V93.9442C220.912 95.1266 220.44 96.2606 219.6 97.0967C218.76 97.9328 217.621 98.4025 216.433 98.4025H181.655C180.467 98.4025 179.328 97.9329 178.487 97.0968C177.647 96.2608 177.174 95.1268 177.174 93.9442V59.4424C177.174 58.7384 177.341 58.0444 177.663 57.4172C177.984 56.79 178.45 56.2475 179.022 55.834C179.595 55.4205 180.258 55.1478 180.956 55.0383C181.655 54.9287 182.37 54.9854 183.042 55.2037Z" fill="#BDC9E5"/>
<path d="M59.378 163.246H11.7432C6.6473 163.246 2.51562 159.043 2.51562 153.857V148.01H59.378V163.246Z" fill="#1A253F"/>
<path d="M278 153.785C278.039 158.999 273.897 163.248 268.772 163.248H220.123V148.012H277.956L278 153.785Z" fill="#1A253F"/>
<path d="M11.993 121.227V139.367C11.993 140.281 11.6282 141.158 10.9787 141.804C10.3292 142.451 9.44838 142.814 8.52989 142.814H2.51562V117.78H8.52989C9.44838 117.78 10.3292 118.143 10.9787 118.79C11.6282 119.436 11.993 120.313 11.993 121.227Z" fill="#86A4EF"/>
<path d="M277.811 128.871L277.829 131.487C259.518 130.123 254.955 111.632 253.931 105.346L267.342 111.979C273.7 115.133 277.756 121.675 277.811 128.871Z" fill="#86A4EF"/>
<path d="M50.7066 134.521C54.2744 134.522 57.7977 135.311 61.0232 136.828C64.2487 138.346 67.0962 140.557 69.3613 143.3C71.6264 146.044 73.2527 149.253 74.1234 152.697C74.994 156.14 75.0875 159.733 74.397 163.217H27.0182C26.3278 159.734 26.4212 156.141 27.2918 152.697C28.1623 149.254 29.7884 146.045 32.0533 143.301C34.3181 140.558 37.1655 138.347 40.3907 136.829C43.6159 135.311 47.1389 134.523 50.7066 134.521Z" fill="#1A253F"/>
<path d="M65.5918 174.064C73.8123 165.882 73.8123 152.617 65.5919 144.435C57.3714 136.253 44.0434 136.253 35.8229 144.435C27.6025 152.617 27.6025 165.882 35.8229 174.064C44.0434 182.245 57.3714 182.245 65.5918 174.064Z" fill="#5F79B7"/>
<path d="M50.7068 169.587C56.4436 169.587 61.0943 164.958 61.0943 159.248C61.0943 153.538 56.4436 148.91 50.7068 148.91C44.97 148.91 40.3193 153.538 40.3193 159.248C40.3193 164.958 44.97 169.587 50.7068 169.587Z" fill="#1A253F"/>
<path d="M232.958 134.521C236.525 134.523 240.048 135.311 243.273 136.829C246.499 138.347 249.346 140.558 251.611 143.301C253.876 146.045 255.502 149.254 256.372 152.697C257.243 156.141 257.336 159.734 256.646 163.217H209.269C208.579 159.734 208.672 156.141 209.543 152.697C210.413 149.254 212.039 146.045 214.304 143.301C216.569 140.558 219.416 138.347 222.642 136.829C225.867 135.311 229.39 134.523 232.958 134.521Z" fill="#1A253F"/>
<path d="M247.841 174.063C256.061 165.882 256.061 152.616 247.841 144.435C239.62 136.253 226.292 136.253 218.072 144.435C209.852 152.616 209.851 165.882 218.072 174.063C226.292 182.245 239.62 182.245 247.841 174.063Z" fill="#5F79B7"/>
<path d="M243.32 159.884C243.674 154.185 239.32 149.28 233.594 148.927C227.868 148.574 222.939 152.909 222.585 158.607C222.231 164.306 226.585 169.212 232.311 169.565C238.037 169.917 242.966 165.583 243.32 159.884Z" fill="#1A253F"/>
<path d="M68.6523 77.3304C70.4048 66.5849 63.0732 56.4599 52.2768 54.7157C41.4804 52.9714 31.3075 60.2684 29.555 71.0139C27.8025 81.7595 35.134 91.8845 45.9305 93.6287C56.7269 95.373 66.8998 88.076 68.6523 77.3304Z" fill="#4F75EC"/>
<path d="M60.3192 71.0121H37.8408V77.3006H60.3192V71.0121Z" fill="white"/>
<path d="M52.2392 62.9721H45.9209V85.3446H52.2392V62.9721Z" fill="white"/>
<path d="M160.497 54.9903H96.8899C95.7329 54.9903 94.7949 55.9238 94.7949 57.0754V96.3174C94.7949 97.469 95.7329 98.4025 96.8899 98.4025H160.497C161.655 98.4025 162.592 97.469 162.592 96.3174V57.0754C162.592 55.9238 161.655 54.9903 160.497 54.9903Z" fill="#BDC9E5"/>
<g opacity="0.2">
<path d="M158.194 54.9882C144.887 65.7661 118.002 87.6101 105.128 98.4025H97.1667C95.8589 98.4025 94.7969 97.2543 94.7969 95.8366V92.3441L131.268 54.9882H158.194Z" fill="white"/>
<path d="M162.593 78.2934L133.652 98.4025H125.149L162.593 61.5897V78.2934Z" fill="white"/>
</g>
<g opacity="0.2">
<path d="M198.256 63.4426L205.251 71.0618L177.551 95.7495C177.297 95.1813 177.165 94.5663 177.164 93.9442V86.4556C183.135 79.9039 193.231 68.6057 198.035 63.2188C198.114 63.2934 198.187 63.366 198.256 63.4426Z" fill="white"/>
<path d="M217.49 84.3974L194.818 98.4025H187.362L210.778 77.085L217.49 84.3974Z" fill="white"/>
</g>
<path d="M160.551 107.292H147.927C147.437 107.292 147.04 107.688 147.04 108.175V108.405C147.04 108.893 147.437 109.288 147.927 109.288H160.551C161.041 109.288 161.438 108.893 161.438 108.405V108.175C161.438 107.688 161.041 107.292 160.551 107.292Z" fill="#3F446A"/>
</g>
<defs>
<clipPath id="clip0_4199_239">
<rect width="278" height="214" fill="white"/>
</clipPath>
</defs>
</svg>
