<svg width="32" height="32" viewBox="0 0 32 32" fill="none" xmlns="http://www.w3.org/2000/svg">
<circle cx="16" cy="16" r="16" fill="#F0F2F5"/>
<g clip-path="url(#clip0_5418_146)">
<path d="M15.498 24.0001C15.3667 24.0001 15.2367 23.9743 15.1155 23.9239C14.9942 23.8736 14.8841 23.7998 14.7915 23.7068L8.29127 17.2066C8.19801 17.1134 8.12402 17.0028 8.07354 16.881C8.02306 16.7593 7.99707 16.6288 7.99707 16.4969C7.99707 16.3651 8.02306 16.2346 8.07354 16.1128C8.12402 15.9911 8.19801 15.8805 8.29127 15.7873L14.7915 9.2871C14.9797 9.0989 15.2349 8.99316 15.5011 8.99316C15.7673 8.99316 16.0225 9.0989 16.2107 9.2871C16.3989 9.47531 16.5047 9.73057 16.5047 9.99673C16.5047 10.2629 16.3989 10.5182 16.2107 10.7064L10.417 16.5001L16.2107 22.2923C16.3502 22.4324 16.4451 22.6107 16.4835 22.8046C16.5218 22.9986 16.5018 23.1996 16.4261 23.3822C16.3504 23.5649 16.2223 23.721 16.0579 23.831C15.8936 23.9409 15.7004 23.9998 15.5027 24.0001H15.498Z" fill="#303C47"/>
<path d="M21.9986 17.4996H8.99979C8.73463 17.4996 8.48033 17.3942 8.29283 17.2067C8.10533 17.0193 8 16.765 8 16.4998C8 16.2346 8.10533 15.9803 8.29283 15.7928C8.48033 15.6053 8.73463 15.5 8.99979 15.5H21.9986C22.2638 15.5 22.5181 15.6053 22.7056 15.7928C22.8931 15.9803 22.9984 16.2346 22.9984 16.4998C22.9984 16.765 22.8931 17.0193 22.7056 17.2067C22.5181 17.3942 22.2638 17.4996 21.9986 17.4996Z" fill="#303C47"/>
</g>
<defs>
<clipPath id="clip0_5418_146">
<rect width="15" height="15" fill="white" transform="translate(8 9)"/>
</clipPath>
</defs>
</svg>
