<svg width="26" height="13" viewBox="0 0 26 13" fill="none" xmlns="http://www.w3.org/2000/svg">
<g clip-path="url(#clip0_5474_2)">
<path d="M1.01151 11.3356L0.966876 11.6856C0.962281 11.7265 0.966195 11.768 0.978358 11.8073C0.990521 11.8465 1.01066 11.8827 1.03743 11.9133C1.0642 11.944 1.097 11.9684 1.13364 11.9851C1.17029 12.0017 1.20995 12.0101 1.24999 12.0097H12.3079C12.348 12.0101 12.3877 12.0016 12.4244 11.985C12.4611 11.9684 12.494 11.944 12.5209 11.9134C12.5477 11.8828 12.568 11.8466 12.5803 11.8074C12.5926 11.7681 12.5967 11.7266 12.5923 11.6856L12.5464 11.3356C12.5336 11.2045 12.5713 11.0735 12.6513 10.9706C12.7314 10.8678 12.8474 10.8013 12.9744 10.7855C13.0373 10.7786 13.1008 10.7845 13.1614 10.803C13.2219 10.8214 13.2784 10.852 13.3275 10.8929C13.3765 10.9338 13.4173 10.9843 13.4474 11.0415C13.4775 11.0987 13.4963 11.1614 13.5028 11.2261L13.5456 11.5666C13.6318 12.3276 13.2123 12.996 12.4651 12.996H1.09162C0.344393 12.996 -0.0750806 12.3282 0.0111377 11.5666L0.0539409 11.2261C0.0603527 11.1615 0.0790856 11.0988 0.109065 11.0417C0.139045 10.9846 0.179682 10.9341 0.228648 10.8932C0.277614 10.8523 0.333946 10.8217 0.394415 10.8032C0.454885 10.7847 0.518303 10.7787 0.581034 10.7855C0.708119 10.8013 0.824118 10.8678 0.904141 10.9706C0.984164 11.0735 1.02183 11.2045 1.00907 11.3356" fill="#D60510"/>
<path d="M11.2337 8.69991C11.7718 8.69991 12.2005 8.29772 12.1895 7.76649C12.1785 7.22267 11.7003 6.87145 11.1616 6.87083H10.0793C9.96006 6.87083 9.84574 6.82209 9.76146 6.73533C9.67717 6.64857 9.62982 6.5309 9.62982 6.4082C9.62982 6.28551 9.67717 6.16784 9.76146 6.08108C9.84574 5.99432 9.96006 5.94558 10.0793 5.94558H10.8026C11.2918 5.92544 11.666 5.62143 11.6893 5.14685C11.7137 4.63891 11.2894 4.25748 10.7721 4.25748H9.01529L9.00795 8.70054H11.2337V8.69991ZM12.5643 5.1437C12.5643 5.60695 12.4047 5.86942 12.1405 6.19231L12.1143 6.22504L12.1509 6.24833C12.6738 6.57626 13.0388 7.07224 13.0682 7.76838C13.1085 8.80566 12.2549 9.66355 11.2411 9.66166H8.56891C8.50635 9.66084 8.44457 9.64735 8.38708 9.62194C8.32959 9.59654 8.27753 9.55973 8.23386 9.51362C8.1902 9.4675 8.15578 9.41298 8.13259 9.35318C8.10939 9.29337 8.09787 9.22944 8.09868 9.16505V3.83011C8.09779 3.7658 8.10922 3.70194 8.13231 3.64218C8.1554 3.58242 8.1897 3.52792 8.23325 3.4818C8.2768 3.43569 8.32875 3.39885 8.38613 3.37341C8.44352 3.34796 8.50521 3.3344 8.56768 3.3335L10.7702 3.34231C11.7321 3.34231 12.5631 4.07054 12.5631 5.14622" fill="black"/>
<path d="M3.95127 7.83246L3.9635 7.87023L3.97695 7.83246C4.09924 7.48125 4.25028 7.09227 4.40865 6.66804C4.57171 6.22157 4.73477 5.79504 4.89783 5.38843C5.06089 4.98183 5.21682 4.61446 5.36561 4.28632C5.46476 4.04828 5.58772 3.82152 5.7325 3.6097C5.80243 3.52178 5.8911 3.45163 5.99163 3.40469C6.09216 3.35775 6.20185 3.33529 6.31218 3.33905H6.42286C6.54878 3.33255 6.67269 3.3735 6.7714 3.45423C6.84557 3.5162 6.89516 3.60396 6.91082 3.70096L7.60117 9.21341C7.60436 9.27433 7.59555 9.33529 7.57527 9.39261C7.55499 9.44994 7.52366 9.50245 7.48316 9.547C7.38972 9.62857 7.26908 9.66943 7.14685 9.66092C7.02272 9.66768 6.90011 9.63035 6.79953 9.55518C6.7549 9.52393 6.71736 9.48311 6.6895 9.43553C6.66163 9.38794 6.6441 9.33471 6.6381 9.2795C6.61486 9.09634 6.59346 8.8924 6.57206 8.66896C6.54148 8.44615 6.43386 7.4844 6.40329 7.24207C6.37272 6.99974 6.18071 5.43501 6.11467 4.86916L6.10856 4.82133L5.8872 5.29906C5.81199 5.46333 5.73066 5.66097 5.64261 5.89071C5.55456 6.12045 5.46406 6.3634 5.3754 6.61958C5.28673 6.87575 4.84892 8.12577 4.84892 8.12577C4.80917 8.2397 4.73396 8.46944 4.66547 8.68092C4.59699 8.89241 4.53339 9.08123 4.51627 9.11774C4.46405 9.22225 4.38486 9.30992 4.2874 9.37114C4.18994 9.43235 4.07798 9.46474 3.9638 9.46474C3.84963 9.46474 3.73766 9.43235 3.6402 9.37114C3.54274 9.30992 3.46355 9.22225 3.41133 9.11774C3.39299 9.08123 3.33001 8.89052 3.26091 8.68092C3.19181 8.47132 3.11844 8.24033 3.07747 8.12577C3.07747 8.12577 2.64943 6.86694 2.55465 6.61958C2.45988 6.37222 2.3761 6.12108 2.28683 5.89071C2.19755 5.66034 2.11622 5.46333 2.04224 5.29906L1.81966 4.82133L1.81477 4.86916C1.7475 5.43564 1.55489 6.99219 1.52554 7.24207C1.49619 7.49195 1.38734 8.44615 1.35799 8.66896C1.32864 8.89178 1.31336 9.09634 1.29012 9.2795C1.28411 9.33456 1.26669 9.38767 1.23906 9.43522C1.21142 9.48278 1.1742 9.52368 1.12991 9.55518C1.02871 9.63003 0.905831 9.66731 0.781371 9.66092C0.6595 9.6695 0.539212 9.62861 0.446281 9.547C0.405903 9.50234 0.374608 9.44983 0.354236 9.39254C0.333863 9.33525 0.324826 9.27434 0.327655 9.21341L1.01862 3.70096C1.03528 3.60419 1.08494 3.5167 1.15865 3.45423C1.25747 3.37492 1.38085 3.33512 1.50597 3.3422H1.61787C1.72811 3.33844 1.83771 3.36091 1.93814 3.40785C2.03857 3.45479 2.12713 3.52494 2.19694 3.61285C2.29233 3.73873 2.41401 3.96091 2.56383 4.28947C2.71364 4.61803 2.86956 4.97868 3.03222 5.39158C3.19487 5.80448 3.35813 6.22493 3.5214 6.67119C3.67855 7.09542 3.82714 7.4844 3.94943 7.83561" fill="black"/>
<path d="M2.59671 0H10.996C11.7872 0 12.181 0.611794 12.2733 1.41808L12.3088 1.67614C12.3225 1.80874 12.2846 1.94152 12.2033 2.04536C12.122 2.1492 12.0041 2.21561 11.8753 2.23003C11.8118 2.23663 11.7478 2.23026 11.6867 2.21128C11.6257 2.1923 11.5689 2.16109 11.5197 2.11944C11.4704 2.07779 11.4296 2.02653 11.3996 1.9686C11.3697 1.91067 11.3512 1.84721 11.3451 1.78188L11.3115 1.53515C11.276 1.22862 11.1501 0.992592 10.8474 0.992592H2.7453C2.43956 0.992592 2.31727 1.22862 2.28119 1.53515L2.24878 1.78188C2.24273 1.84704 2.22426 1.91032 2.19442 1.96812C2.16459 2.02592 2.12397 2.07709 2.0749 2.11872C2.02583 2.16034 1.96927 2.1916 1.90845 2.2107C1.84763 2.2298 1.78375 2.23637 1.72047 2.23003C1.59168 2.21561 1.47371 2.1492 1.39243 2.04536C1.31116 1.94152 1.27322 1.80874 1.28693 1.67614L1.3224 1.41808C1.41595 0.611165 1.81158 0 2.59977 0" fill="#D60510"/>
<path d="M17.7038 5.80966C17.6459 6.04087 17.5848 6.2876 17.5204 6.54986C17.4592 6.81107 17.3944 7.06221 17.3326 7.30138C17.2709 7.54056 17.214 7.74953 17.1578 7.9308C17.1228 8.05847 17.0765 8.18256 17.0196 8.30153C16.9547 8.41986 16.8398 8.4784 16.6765 8.4784C16.6161 8.47619 16.5561 8.46647 16.498 8.44944C16.4585 8.43693 16.4219 8.41632 16.3903 8.38884C16.3588 8.36136 16.333 8.32759 16.3145 8.28957C16.2564 8.16434 16.2102 8.03366 16.1763 7.89933C16.1213 7.7061 16.0638 7.48455 16.0015 7.23215C15.9391 6.97975 15.8792 6.71351 15.818 6.43216C15.7569 6.15081 15.7012 5.89086 15.6523 5.6479C15.6034 5.40495 15.5618 5.20039 15.53 5.03107C15.4982 4.86176 15.4793 4.76042 15.475 4.72581C15.4716 4.71135 15.4695 4.6966 15.4689 4.68175V4.65657C15.4678 4.6232 15.4745 4.59006 15.4883 4.55986C15.5021 4.52965 15.5227 4.50326 15.5483 4.48285C15.6042 4.43777 15.6737 4.41437 15.7446 4.41676C15.8074 4.41419 15.8696 4.43084 15.9232 4.4646C15.9743 4.50588 16.0088 4.565 16.0204 4.63076C16.0204 4.63895 16.0326 4.70063 16.054 4.81392C16.0754 4.92722 16.106 5.07199 16.1403 5.24759C16.1745 5.4232 16.2142 5.62084 16.2571 5.83925C16.2999 6.05765 16.3445 6.27984 16.3922 6.50391C16.4399 6.72798 16.4864 6.9445 16.5334 7.15536C16.5805 7.36621 16.6239 7.5456 16.6655 7.69603C16.7059 7.55378 16.7505 7.39076 16.8007 7.2076C16.8508 7.02444 16.8991 6.83625 16.948 6.64113C16.9969 6.44601 17.0434 6.25089 17.0893 6.05577C17.1351 5.86065 17.1755 5.67812 17.2152 5.51132C17.255 5.34452 17.2874 5.19661 17.3155 5.06506C17.3436 4.93351 17.3663 4.83784 17.3834 4.77427C17.3998 4.69902 17.4412 4.63202 17.5005 4.58489C17.5598 4.53776 17.6332 4.51347 17.7081 4.51621C17.7879 4.5134 17.8661 4.53921 17.9294 4.58922C17.985 4.63659 18.0235 4.70174 18.0389 4.77427C18.0848 4.98009 18.1331 5.21046 18.1863 5.46663C18.2395 5.7228 18.2951 5.97709 18.352 6.23704C18.4088 6.49699 18.47 6.75253 18.5299 7.00241C18.5898 7.25229 18.6522 7.47385 18.7085 7.66645C18.7488 7.51602 18.7935 7.33474 18.8405 7.12578C18.8876 6.91681 18.9347 6.69903 18.9836 6.47685C19.0325 6.25466 19.0802 6.03625 19.1249 5.81596C19.1695 5.59566 19.2111 5.4018 19.2472 5.22745C19.2833 5.0531 19.3132 4.91274 19.3358 4.80322C19.3585 4.69371 19.3695 4.63706 19.3695 4.63265C19.381 4.56655 19.4161 4.50727 19.4679 4.46649C19.5212 4.43246 19.5832 4.41578 19.6459 4.41865C19.7162 4.41546 19.7855 4.43773 19.8415 4.48159C19.8673 4.50197 19.8879 4.52834 19.9019 4.55854C19.9158 4.58873 19.9226 4.6219 19.9216 4.65531V4.68049C19.9209 4.69534 19.9189 4.71008 19.9155 4.72455C19.9125 4.75917 19.8923 4.85924 19.8544 5.02981C19.8165 5.20039 19.7785 5.40747 19.7321 5.64664C19.6856 5.88582 19.6275 6.15018 19.5658 6.42775C19.504 6.70533 19.4435 6.9722 19.386 7.22334C19.3285 7.47447 19.2692 7.69729 19.2135 7.888C19.1795 8.02105 19.1332 8.15046 19.0753 8.27447C19.0371 8.35347 18.9701 8.41367 18.8888 8.44189C18.8295 8.46209 18.7678 8.47374 18.7054 8.47651C18.6806 8.47595 18.6559 8.47385 18.6314 8.47021C18.5959 8.46494 18.5609 8.4563 18.5269 8.44441C18.4875 8.43087 18.4506 8.41089 18.4174 8.38524C18.3796 8.35687 18.3498 8.31863 18.3312 8.27447C18.2776 8.14609 18.2334 8.01375 18.1991 7.87856C18.1484 7.69351 18.0927 7.4858 18.0334 7.25229C17.9741 7.01878 17.9154 6.77582 17.8585 6.52154C17.8016 6.26725 17.7472 6.02933 17.6989 5.80778" fill="black"/>
<path d="M20.9128 7.31369C20.8516 7.51573 20.7972 7.70141 20.7501 7.87324C20.703 8.04508 20.659 8.18795 20.618 8.29558C20.5992 8.3527 20.5624 8.40172 20.5134 8.43489C20.4645 8.46806 20.4062 8.48349 20.3478 8.47874C20.3104 8.4822 20.2727 8.47755 20.2373 8.46508C20.2018 8.45261 20.1692 8.43261 20.1417 8.40636C20.0985 8.35386 20.0766 8.28623 20.0805 8.21754C20.0805 8.18957 20.0846 8.16176 20.0928 8.13508C20.1007 8.11116 20.1264 8.0243 20.1698 7.87765C20.2132 7.731 20.2683 7.54846 20.3386 7.33006C20.4089 7.11165 20.4847 6.87247 20.5679 6.61315C20.651 6.35383 20.7385 6.09577 20.829 5.84148C20.9195 5.5872 21.0069 5.34991 21.0931 5.13087C21.1617 4.94859 21.2413 4.77095 21.3316 4.59901C21.3573 4.53582 21.4042 4.48422 21.4637 4.45362C21.6113 4.4014 21.7719 4.40363 21.918 4.45991C21.9491 4.47433 21.9769 4.49527 21.9996 4.52139C22.0224 4.54751 22.0396 4.57824 22.0501 4.6116C22.1082 4.73748 22.1773 4.90617 22.2562 5.11513C22.3351 5.3241 22.42 5.55573 22.5069 5.80183C22.5937 6.04793 22.6818 6.29844 22.768 6.55335C22.8542 6.80827 22.9337 7.04808 23.0046 7.26837C23.0756 7.48867 23.1379 7.67624 23.1881 7.8317C23.2382 7.98717 23.2712 8.08788 23.2835 8.13256C23.2913 8.15932 23.2954 8.18708 23.2957 8.21502C23.2971 8.2501 23.2913 8.28509 23.2785 8.31765C23.2657 8.35022 23.2464 8.3796 23.2217 8.40384C23.162 8.45569 23.085 8.48164 23.0071 8.47623C22.9507 8.48069 22.8946 8.46342 22.8499 8.42776C22.812 8.39061 22.7836 8.34432 22.7674 8.29307C22.727 8.18418 22.6781 8.0413 22.6231 7.87073C22.568 7.70015 22.5099 7.51573 22.4488 7.31369H20.9128ZM22.2751 6.76547C22.1889 6.49293 22.1076 6.24179 22.0305 6.01394C21.9535 5.78609 21.8734 5.56769 21.7908 5.36187C21.7707 5.31592 21.7493 5.26368 21.7266 5.20073C21.704 5.13779 21.6912 5.10443 21.6869 5.09185C21.6702 5.12472 21.6568 5.15932 21.6471 5.19507C21.6239 5.25801 21.6025 5.31529 21.5823 5.36124C21.5008 5.56685 21.4217 5.78421 21.3451 6.01331C21.2699 6.24116 21.1885 6.4923 21.1035 6.76484H22.2764L22.2751 6.76547Z" fill="black"/>
<path d="M24.3554 6.89169C24.3343 6.87019 24.3149 6.84704 24.2973 6.82246C24.2751 6.79462 24.2547 6.76541 24.2361 6.73497C24.178 6.65125 24.1175 6.54992 24.049 6.4297C23.9805 6.30948 23.9139 6.18297 23.846 6.05205C23.7781 5.92113 23.7139 5.7814 23.6509 5.64544C23.588 5.50949 23.5286 5.38298 23.4791 5.26779C23.4296 5.15261 23.3837 5.0475 23.347 4.96253C23.3193 4.90446 23.2966 4.84402 23.2792 4.78188C23.273 4.76652 23.2679 4.75075 23.2639 4.73468C23.2619 4.71902 23.2609 4.70326 23.2608 4.68747C23.26 4.65224 23.2664 4.61723 23.2796 4.58471C23.2927 4.55218 23.3124 4.52286 23.3372 4.49864C23.3658 4.47145 23.3993 4.45037 23.4358 4.43664C23.4724 4.42292 23.5112 4.41682 23.55 4.41871C23.5819 4.41549 23.614 4.41945 23.6442 4.43032C23.6744 4.44119 23.702 4.45871 23.7249 4.48165C23.7568 4.51914 23.7826 4.56164 23.8014 4.60753C23.8093 4.62956 23.8295 4.67425 23.8625 4.74538L23.975 5.00973C24.0197 5.11422 24.0716 5.23003 24.1285 5.35591C24.1854 5.4818 24.2441 5.60768 24.304 5.7279C24.3639 5.84812 24.4208 5.96519 24.4758 6.07722C24.5219 6.17205 24.5742 6.26353 24.6324 6.35102C24.7248 6.20271 24.8089 6.04909 24.8843 5.89092C24.9736 5.70587 25.0598 5.52397 25.1411 5.34395C25.2224 5.16394 25.2934 5.00344 25.3533 4.86497C25.4132 4.72649 25.4475 4.64026 25.4609 4.6069C25.4799 4.56114 25.5057 4.51867 25.5373 4.48102C25.5603 4.45808 25.5878 4.44056 25.618 4.42969C25.6482 4.41882 25.6804 4.41486 25.7122 4.41808C25.7507 4.41577 25.7893 4.42131 25.8257 4.43438C25.8621 4.44745 25.8956 4.46779 25.9244 4.49424C25.9493 4.51845 25.9689 4.54777 25.9821 4.5803C25.9953 4.61283 26.0016 4.64784 26.0008 4.68306C26.0011 4.69886 26.0001 4.71465 25.9978 4.73027C25.994 4.74627 25.9893 4.76204 25.9837 4.77748C25.9709 4.81084 25.947 4.87126 25.9128 4.96064C25.8785 5.05002 25.8345 5.14946 25.7832 5.26905C25.7318 5.38864 25.6755 5.5139 25.6126 5.64985C25.5496 5.7858 25.4835 5.92176 25.4163 6.05645C25.349 6.19115 25.2811 6.31892 25.2133 6.4404C25.1454 6.56188 25.083 6.6651 25.0261 6.74881C24.9915 6.8004 24.9524 6.84865 24.9094 6.89295V8.19648C24.9108 8.23428 24.9048 8.27201 24.8915 8.3073C24.8783 8.3426 24.8581 8.37472 24.8323 8.40167C24.7775 8.45227 24.7066 8.48026 24.633 8.48026C24.5594 8.48026 24.4884 8.45227 24.4336 8.40167C24.4078 8.37472 24.3877 8.3426 24.3744 8.3073C24.3612 8.27201 24.3551 8.23428 24.3566 8.19648V6.89169H24.3554Z" fill="black"/>
</g>
<defs>
<clipPath id="clip0_5474_2">
<rect width="26" height="13" fill="white"/>
</clipPath>
</defs>
</svg>
