<svg width="271" height="249" viewBox="0 0 271 249" fill="none" xmlns="http://www.w3.org/2000/svg">
<g clip-path="url(#clip0_4199_242)">
<path d="M264.903 160.895C249.41 126.958 240.906 102.047 235.354 65.2483C230.101 30.4265 204.887 0.52381 167.127 0.00601349C123.64 -0.581243 105.001 33.5112 94.6173 69.5328C82.5917 111.237 44.1629 127.971 17.7979 159.033C-3.58541 184.215 -10.7281 226.573 25.1509 243.253C59.0411 258.999 94.5312 238.524 126.257 227.565C165.406 214.039 194.375 234.252 232.275 230.864C270.175 227.476 278.49 190.615 264.913 160.895C258.232 146.261 271.596 175.529 264.903 160.895Z" fill="#E2E6ED"/>
<path d="M227.819 200.406C225.811 204.536 222.11 207.608 218.232 210.105C213.992 212.833 209.424 215.023 204.635 216.625C203.978 216.849 203.315 217.058 202.649 217.257H175.713C175.525 217.054 175.347 216.843 175.178 216.625C173.374 214.336 172.399 211.403 172.753 208.53C173.208 204.839 176.039 201.448 179.704 200.665C183.369 199.882 187.554 202.048 188.67 205.6C189.282 198.755 189.989 191.626 193.661 185.797C196.988 180.521 202.748 176.745 208.988 176.07C212.659 175.692 216.362 176.363 219.659 178.005C219.978 178.157 220.262 178.321 220.555 178.479C222.532 179.592 224.278 181.067 225.699 182.826C229.591 187.707 230.544 194.802 227.819 200.406Z" fill="#F2F2F2"/>
<path d="M220.357 178.911C207.831 189.016 197.933 201.949 191.493 216.625C191.401 216.833 191.308 217.045 191.219 217.257H189.944C190.034 217.045 190.123 216.833 190.215 216.625C191.442 213.784 192.797 210.993 194.285 208.274C197.452 202.493 201.178 197.03 205.412 191.963C209.642 186.889 214.367 182.241 219.519 178.087C219.56 178.055 219.605 178.028 219.653 178.005C219.729 177.97 219.812 177.95 219.897 177.947C219.982 177.944 220.066 177.957 220.145 177.986C220.224 178.016 220.297 178.06 220.358 178.118C220.42 178.175 220.469 178.244 220.504 178.321C220.523 178.367 220.538 178.414 220.548 178.463C220.562 178.548 220.551 178.635 220.517 178.714C220.483 178.793 220.428 178.861 220.357 178.911Z" fill="white"/>
<path d="M120.421 149.694C120.991 149.134 121.314 148.373 121.319 147.577C121.323 146.782 121.01 146.017 120.446 145.45C120.319 145.326 120.183 145.212 120.038 145.109L118.508 135.126L112.229 137.083L115.669 145.99C115.278 146.62 115.135 147.37 115.267 148.098C115.398 148.825 115.795 149.48 116.381 149.937C116.967 150.394 117.703 150.621 118.448 150.577C119.192 150.532 119.895 150.218 120.421 149.694Z" fill="#FFB8B8"/>
<path d="M113.954 144.996L110.079 127.075C109.702 125.358 109.776 123.575 110.294 121.895C110.811 120.215 111.756 118.695 113.036 117.48C117.996 112.744 124.367 106.783 126.57 105.239C128.636 103.779 131.136 103.048 133.671 103.161H133.722L137.056 106.281L129.795 118.124L118.777 124.963L120.004 142.527L113.954 144.996Z" fill="#4F75EC"/>
<path d="M111.277 120.643H127.532C127.87 120.643 128.194 120.776 128.433 121.013C128.672 121.25 128.807 121.571 128.807 121.906C128.807 122.241 128.672 122.562 128.433 122.799C128.194 123.036 127.87 123.169 127.532 123.169H111.277C110.939 123.169 110.614 123.036 110.375 122.799C110.136 122.562 110.002 122.241 110.002 121.906C110.002 121.571 110.136 121.25 110.375 121.013C110.614 120.776 110.939 120.643 111.277 120.643Z" fill="#CCCCCC"/>
<path d="M111.277 148.112H127.532C127.87 148.112 128.194 148.245 128.433 148.482C128.672 148.719 128.807 149.04 128.807 149.375C128.807 149.71 128.672 150.031 128.433 150.268C128.194 150.505 127.87 150.638 127.532 150.638H111.277C110.939 150.638 110.614 150.505 110.375 150.268C110.136 150.031 110.002 149.71 110.002 149.375C110.002 149.04 110.136 148.719 110.375 148.482C110.614 148.245 110.939 148.112 111.277 148.112Z" fill="#CCCCCC"/>
<path d="M119.563 216.941C119.404 216.941 119.25 216.883 119.132 216.776C119.014 216.67 118.94 216.524 118.926 216.366L110.789 121.973C110.773 121.805 110.826 121.639 110.935 121.509C111.044 121.38 111.2 121.299 111.369 121.284C111.538 121.269 111.706 121.321 111.836 121.429C111.967 121.537 112.048 121.691 112.064 121.859L119.547 209.082L126.817 121.862C126.832 121.695 126.913 121.54 127.042 121.431C127.172 121.323 127.34 121.27 127.509 121.284C127.678 121.299 127.835 121.379 127.944 121.507C128.053 121.636 128.107 121.802 128.092 121.969L120.201 216.376C120.187 216.534 120.114 216.681 119.996 216.788C119.878 216.895 119.723 216.954 119.563 216.953V216.941Z" fill="#CCCCCC"/>
<path d="M137.792 99.3853C142.411 99.3853 146.155 95.6761 146.155 91.1006C146.155 86.525 142.411 82.8158 137.792 82.8158C133.173 82.8158 129.429 86.525 129.429 91.1006C129.429 95.6761 133.173 99.3853 137.792 99.3853Z" fill="#FFB8B8"/>
<path d="M112.867 213.155L108.89 211.902L111.889 196.106L117.757 197.959L112.867 213.155Z" fill="#FFB8B8"/>
<path d="M112.647 216.65L99.8438 212.606L99.9489 212.29C100.356 211.03 101.251 209.981 102.437 209.373C103.624 208.766 105.006 208.65 106.279 209.051L114.282 211.577L112.647 216.65Z" fill="#2F2E41"/>
<path d="M141.805 213.073H137.629L135.644 197.126H141.805V213.073Z" fill="#FFB8B8"/>
<path d="M129.74 216.755H142.54V212.05H134.461C133.209 212.051 132.009 212.544 131.124 213.421C130.239 214.297 129.741 215.486 129.74 216.726V216.755Z" fill="#2F2E41"/>
<path d="M141.684 207.898L140.275 207.69C136.001 207.059 135.746 207.021 135.067 206.743C134.719 206.591 134.697 204.312 134.904 191.506C135.057 182.106 135.245 170.405 134.879 164.126C134.864 163.877 134.766 163.641 134.598 163.455C134.431 163.269 134.206 163.144 133.958 163.101C133.711 163.058 133.456 163.099 133.235 163.217C133.014 163.335 132.839 163.524 132.74 163.753C129.553 171.015 124.227 187.303 120.699 198.073C119.468 201.821 118.499 204.779 117.887 206.553C117.768 206.889 117.527 207.168 117.211 207.337C116.896 207.507 116.528 207.553 116.179 207.469C113.276 206.749 113.47 206.443 109.333 205.382C108.975 205.292 108.666 205.068 108.471 204.757C108.276 204.446 108.21 204.073 108.287 203.715C109.033 200.22 122.729 143.537 123.778 138.147C123.849 137.777 124.065 137.45 124.38 137.238C124.694 137.026 125.08 136.947 125.454 137.017C128.539 137.633 130.413 138.28 133.46 138.911C136.75 139.593 140.154 140.298 143.465 140.954C143.796 141.021 144.091 141.201 144.3 141.463C145.119 142.489 146.337 143.063 147.625 143.673C148.495 144.086 146.525 144.048 147.284 144.642C150.347 147.045 145.942 195.819 143.28 206.841C143.194 207.185 142.981 207.485 142.684 207.683C142.386 207.881 142.025 207.962 141.671 207.911L141.684 207.898Z" fill="#2F2E41"/>
<path d="M141.358 98.3497C140.867 96.2975 143.337 91.8804 142.849 89.825C142.531 88.4358 139.219 89.3798 138.448 88.1738C137.677 86.9677 136.389 85.9857 134.942 85.9636C133.285 85.9479 131.653 87.1634 130.085 86.6361C128.516 86.1089 127.99 83.9524 128.692 82.4464C129.393 80.9404 130.904 79.9774 132.398 79.226C134.948 77.9441 137.903 77.0159 140.622 77.8557C142.266 78.3703 143.643 79.4786 144.975 80.5647C146.187 81.5561 147.42 82.5696 148.271 83.8798C149.932 86.4467 149.83 89.9071 148.411 92.6161C146.993 95.325 144.424 97.3173 141.555 98.4728" fill="#2F2E41"/>
<path d="M120.839 146.107C121.741 144.614 123.111 137.614 124.8 125.869C125.951 117.849 126.955 109.7 127.452 105.539C127.49 105.202 127.614 104.88 127.813 104.604C128.011 104.327 128.278 104.106 128.587 103.96C128.906 103.806 129.224 103.66 129.543 103.521C133.661 101.747 137.83 101.16 141.948 101.772C146.055 102.397 149.908 104.137 153.078 106.799L153.116 106.833V106.881C153.132 106.975 154.859 116.195 151.322 122.424C147.832 128.571 147.793 144.841 147.793 145.015V145.223L147.589 145.166C142.171 143.628 121.189 146.318 120.979 146.344L120.66 146.388L120.839 146.107Z" fill="#4F75EC"/>
<path d="M136.137 124.748H152.392C152.73 124.748 153.055 124.881 153.294 125.118C153.533 125.355 153.667 125.676 153.667 126.011C153.667 126.346 153.533 126.667 153.294 126.904C153.055 127.141 152.73 127.274 152.392 127.274H136.137C135.799 127.274 135.475 127.141 135.236 126.904C134.997 126.667 134.862 126.346 134.862 126.011C134.862 125.676 134.997 125.355 135.236 125.118C135.475 124.881 135.799 124.748 136.137 124.748Z" fill="#CCCCCC"/>
<path d="M136.137 152.216H152.392C152.73 152.216 153.055 152.349 153.294 152.586C153.533 152.823 153.667 153.144 153.667 153.479C153.667 153.814 153.533 154.135 153.294 154.372C153.055 154.609 152.73 154.742 152.392 154.742H136.137C135.799 154.742 135.475 154.609 135.236 154.372C134.997 154.135 134.862 153.814 134.862 153.479C134.862 153.144 134.997 152.823 135.236 152.586C135.475 152.349 135.799 152.216 136.137 152.216Z" fill="#CCCCCC"/>
<path d="M144.425 217.257C144.265 217.257 144.111 217.199 143.993 217.092C143.875 216.986 143.801 216.839 143.787 216.682L135.65 126.077C135.635 125.91 135.687 125.743 135.796 125.614C135.905 125.485 136.061 125.404 136.23 125.389C136.399 125.374 136.567 125.426 136.698 125.534C136.828 125.641 136.91 125.796 136.925 125.963L144.409 209.398L151.679 125.967C151.693 125.799 151.774 125.644 151.904 125.536C152.034 125.427 152.201 125.375 152.37 125.389C152.539 125.403 152.696 125.483 152.805 125.612C152.915 125.74 152.968 125.906 152.954 126.074L145.062 216.691C145.048 216.849 144.975 216.997 144.857 217.104C144.739 217.211 144.585 217.27 144.425 217.269V217.257Z" fill="#CCCCCC"/>
<path d="M139.163 152.617C139.077 152.233 139.069 151.835 139.139 151.447C139.208 151.059 139.355 150.689 139.569 150.357C139.783 150.025 140.061 149.738 140.388 149.513C140.714 149.287 141.082 149.128 141.47 149.043C141.644 149.005 141.821 148.983 141.999 148.977L148.756 141.418L152.954 146.442L145.18 152.068C145.158 152.804 144.865 153.507 144.356 154.044C143.847 154.581 143.157 154.915 142.417 154.982C141.676 155.05 140.937 154.847 140.337 154.411C139.738 153.975 139.32 153.337 139.163 152.617Z" fill="#FFB8B8"/>
<path d="M143.099 147.357L153.76 133.273L148.262 121.591L148.66 107.765L153.17 106.941L153.218 106.963C155.408 108.232 157.106 110.192 158.041 112.529C159.041 115.008 161.119 123.447 162.684 130.09C163.094 131.799 163.053 133.583 162.566 135.272C162.08 136.961 161.163 138.498 159.905 139.736L146.821 152.68L143.099 147.357Z" fill="#4F75EC"/>
<path d="M98.3971 213.342L112.985 216.815C113.269 216.888 113.569 216.861 113.834 216.738C114.1 216.615 114.314 216.404 114.439 216.142L126.968 183.136C127.024 183.009 127.052 182.872 127.052 182.733C127.052 182.595 127.024 182.458 126.968 182.331C126.906 182.186 126.814 182.055 126.699 181.946C126.584 181.838 126.448 181.753 126.298 181.699L115.331 177.55C115.157 177.485 114.972 177.456 114.786 177.467C114.6 177.477 114.419 177.526 114.254 177.61C114.11 177.68 113.984 177.78 113.883 177.903C113.782 178.025 113.708 178.168 113.667 178.321L105.925 207.412H105.811C105.766 207.412 101.329 207.728 99.3342 210.09C98.9576 210.537 98.6797 211.057 98.5183 211.617C98.3569 212.177 98.3156 212.765 98.3971 213.342Z" fill="#CCCCCC"/>
<path d="M108.968 194.854L108.9 195.482L122.203 196.878L122.27 196.251L108.968 194.854Z" fill="#B3B3B3"/>
<path d="M107.798 200.022L107.536 200.597L118.242 205.368L118.503 204.792L107.798 200.022Z" fill="#B3B3B3"/>
<path d="M123.662 191.812L111.047 187.673L111.308 187.095L123.923 191.234L123.662 191.812Z" fill="#B3B3B3"/>
<path d="M124.937 188.97L112.322 182.937L112.584 182.359L125.199 188.393L124.937 188.97Z" fill="#B3B3B3"/>
<path d="M106.686 205.005L106.271 205.485L115.366 213.182L115.78 212.702L106.686 205.005Z" fill="#B3B3B3"/>
<path d="M104.096 207.549L103.516 207.81L107.168 215.789L107.749 215.528L104.096 207.549Z" fill="#B3B3B3"/>
<path d="M189.626 207.914V64.0015C189.626 62.0598 189.661 60.1117 189.626 58.1668C189.626 58.0847 189.626 57.9995 189.626 57.9142C189.626 56.6955 187.713 56.6924 187.713 57.9142V201.824C187.713 203.769 187.675 205.714 187.713 207.658V207.914C187.713 209.133 189.626 209.133 189.626 207.914Z" fill="#F2F2F2"/>
<path d="M200.202 98.135H177.253C176.704 98.135 176.177 97.9188 175.788 97.5339C175.4 97.149 175.182 96.6271 175.182 96.0828V68.4564C175.182 67.9122 175.4 67.3902 175.788 67.0053C176.177 66.6204 176.704 66.4042 177.253 66.4042H200.202C200.751 66.4042 201.278 66.6204 201.667 67.0053C202.055 67.3902 202.273 67.9122 202.273 68.4564V96.0828C202.273 96.6271 202.055 97.149 201.667 97.5339C201.278 97.9188 200.751 98.135 200.202 98.135Z" fill="#F2F2F2"/>
</g>
<defs>
<clipPath id="clip0_4199_242">
<rect width="271" height="249" fill="white"/>
</clipPath>
</defs>
</svg>
