<svg width="271" height="249" viewBox="0 0 271 249" fill="none" xmlns="http://www.w3.org/2000/svg">
<g clip-path="url(#clip0_4199_240)">
<path d="M264.903 160.896C249.41 126.958 240.906 102.047 235.354 65.2486C230.101 30.4268 204.887 0.524115 167.127 0.00631866C123.64 -0.580938 105.001 33.5115 94.6173 69.5331C82.5917 111.238 44.1629 127.971 17.7979 159.033C-3.58541 184.215 -10.7281 226.574 25.1509 243.254C59.0411 258.999 94.5312 238.524 126.257 227.565C165.406 214.039 194.375 234.252 232.275 230.865C270.175 227.477 278.49 190.615 264.913 160.896C258.232 146.262 271.596 175.53 264.903 160.896Z" fill="#E2E6ED"/>
<path d="M53.8232 187.426C55.2511 172.982 63.8854 158.562 77.6225 153.52C72.5459 168.481 72.9749 184.738 78.8336 199.415C81.1125 205.066 84.252 211.116 82.3906 216.919C81.24 220.531 78.2631 223.347 74.8974 225.147C71.5316 226.946 67.7739 227.862 64.0607 228.759L63.3404 229.39C57.0583 216.268 52.3953 201.868 53.8232 187.426Z" fill="#F0F0F0"/>
<path d="M77.7656 153.789C70.011 162.86 65.1281 174.44 64.2739 186.309C64.0891 188.876 64.1273 191.496 64.7584 194.003C65.394 196.444 66.6771 198.672 68.4748 200.457C70.1162 202.155 71.9807 203.702 73.1951 205.764C74.47 207.939 74.5688 210.443 73.807 212.808C72.8732 215.7 70.9385 218.087 68.9783 220.357C66.7951 222.883 64.4875 225.459 63.6206 228.749C63.5154 229.147 62.897 228.964 63.0022 228.566C64.513 222.842 69.9951 219.473 72.513 214.289C73.6891 211.87 74.1353 209.085 72.9082 206.598C71.8373 204.419 69.8995 202.809 68.223 201.12C66.4604 199.329 65.0931 197.353 64.3504 194.941C63.5951 192.478 63.4516 189.854 63.5696 187.294C63.8791 181.489 65.1085 175.769 67.2126 170.342C69.5808 164.138 73.001 158.379 77.3258 153.315C77.5935 152.999 78.0333 153.473 77.7656 153.782V153.789Z" fill="white"/>
<path d="M64.3473 182.441C62.34 182.013 60.5517 180.892 59.3017 179.278C58.0517 177.665 57.4214 175.664 57.5234 173.632C57.5233 173.589 57.5322 173.546 57.5496 173.506C57.567 173.466 57.5925 173.43 57.6245 173.401C57.6565 173.371 57.6943 173.348 57.7356 173.334C57.7769 173.319 57.8207 173.313 57.8644 173.317C57.9489 173.317 58.03 173.35 58.0898 173.409C58.1496 173.468 58.1831 173.549 58.1831 173.632C58.0845 175.526 58.673 177.391 59.8421 178.892C61.0112 180.393 62.6839 181.43 64.5577 181.816C64.9656 181.901 64.7776 182.511 64.3728 182.428L64.3473 182.441Z" fill="white"/>
<path d="M67.529 199.711C71.0755 197.489 73.6455 194.023 74.7258 190.006C74.8342 189.608 75.4525 189.791 75.3441 190.189C74.2153 194.374 71.5335 197.982 67.8349 200.292C67.4812 200.51 67.1784 199.945 67.5162 199.727L67.529 199.711Z" fill="white"/>
<path d="M70.1934 164.735C70.9358 165.06 71.7478 165.198 72.557 165.136C73.3663 165.074 74.1475 164.815 74.8309 164.381C75.1783 164.157 75.4683 164.722 75.1496 164.943C74.3929 165.42 73.5298 165.706 72.6358 165.776C71.7418 165.846 70.8441 165.698 70.0213 165.344C69.9804 165.333 69.9423 165.313 69.9091 165.287C69.876 165.26 69.8485 165.228 69.8283 165.191C69.8081 165.154 69.7956 165.113 69.7915 165.071C69.7874 165.029 69.7919 164.987 69.8046 164.947C69.8162 164.906 69.836 164.868 69.8626 164.835C69.8892 164.803 69.9223 164.775 69.9597 164.755C69.9971 164.735 70.0382 164.723 70.0805 164.719C70.1229 164.715 70.1656 164.719 70.2062 164.732L70.1934 164.735Z" fill="white"/>
<path d="M120.548 178.144L119.911 178.586C117.043 180.564 114.341 182.769 111.831 185.178C111.634 185.362 111.439 185.551 111.248 185.74C105.266 191.611 100.436 198.531 97.0042 206.149C95.6425 209.182 94.5152 212.312 93.6321 215.514C92.4114 219.934 91.4456 224.825 88.899 228.481C88.6378 228.865 88.3525 229.233 88.0448 229.583L64.1659 230.214L64.0001 230.141L63.0439 230.211C63.079 230.04 63.1173 229.867 63.1523 229.699C63.1714 229.602 63.1969 229.504 63.2161 229.406C63.2352 229.308 63.2447 229.276 63.2543 229.216C63.2639 229.156 63.2543 229.172 63.2543 229.156C63.2543 229.141 63.2798 229.043 63.2894 228.989C63.5018 228.017 63.7239 227.044 63.9555 226.072C65.7181 218.668 68.1213 211.34 71.5667 204.602C71.6719 204.4 71.777 204.195 71.8854 203.99C73.458 200.965 75.2765 198.071 77.3229 195.339C78.4492 193.847 79.6502 192.411 80.9213 191.038C84.2162 187.499 88.0528 184.496 92.2902 182.138C100.736 177.437 110.604 175.467 119.828 177.964L120.548 178.144Z" fill="#F0F0F0"/>
<path d="M120.5 178.447C108.797 181.061 97.8708 187.398 89.96 196.368C88.2548 198.31 86.6931 200.422 85.67 202.802C84.6939 205.131 84.3638 207.675 84.7138 210.172C84.9943 212.505 85.5552 214.863 85.2588 217.222C84.9401 219.713 83.5122 221.778 81.466 223.221C78.964 224.973 75.9743 225.747 73.0229 226.378C69.7496 227.088 66.3297 227.774 63.6428 229.879C63.3241 230.135 62.9352 229.621 63.2603 229.365C67.9488 225.699 74.3711 226.277 79.5345 223.641C81.9441 222.409 83.9967 220.452 84.5257 217.733C84.9911 215.356 84.4174 212.925 84.1114 210.563C83.7927 208.085 83.901 205.691 84.7743 203.323C85.67 200.905 87.1489 198.723 88.7999 196.75C92.5754 192.299 97.0335 188.464 102.011 185.384C107.671 181.834 113.903 179.271 120.437 177.806C120.841 177.715 120.905 178.352 120.5 178.438V178.447Z" fill="white"/>
<path d="M92.3732 193.327C91.031 191.789 90.2848 189.827 90.2679 187.794C90.2509 185.76 90.9644 183.787 92.2808 182.226C92.5485 181.911 93.0553 182.305 92.7876 182.621C91.5588 184.072 90.8943 185.911 90.9142 187.805C90.9341 189.699 91.637 191.523 92.8959 192.949C93.1668 193.264 92.6441 193.637 92.3732 193.327Z" fill="white"/>
<path d="M84.4176 209.007C88.6005 209.346 92.7587 208.111 96.0639 205.549C96.3826 205.294 96.7714 205.811 96.4432 206.064C93.0035 208.722 88.6789 209.998 84.3316 209.638C83.914 209.603 84.0128 208.972 84.4304 209.007H84.4176Z" fill="white"/>
<path d="M107.805 182.668C108.2 183.371 108.764 183.965 109.447 184.398C110.13 184.831 110.911 185.089 111.719 185.15C112.134 185.182 112.038 185.813 111.621 185.781C110.727 185.711 109.864 185.425 109.108 184.947C108.352 184.47 107.725 183.817 107.283 183.044C107.257 183.01 107.239 182.972 107.229 182.931C107.219 182.891 107.217 182.848 107.224 182.807C107.23 182.766 107.245 182.726 107.267 182.69C107.289 182.654 107.318 182.623 107.353 182.599C107.387 182.573 107.426 182.555 107.467 182.545C107.509 182.534 107.552 182.532 107.594 182.539C107.636 182.545 107.677 182.56 107.713 182.582C107.749 182.605 107.781 182.634 107.805 182.668Z" fill="white"/>
<path d="M164.689 102.713C164.689 102.713 160.431 120.53 165.645 120.53C170.859 120.53 183.156 100.37 183.156 100.37L178.895 95.2145L171.245 105.728L170.843 100.361L164.689 102.713Z" fill="#A0616A"/>
<path d="M182.009 101.15C184.297 101.15 186.152 99.3126 186.152 97.0457C186.152 94.7789 184.297 92.9413 182.009 92.9413C179.72 92.9413 177.865 94.7789 177.865 97.0457C177.865 99.3126 179.72 101.15 182.009 101.15Z" fill="#A0616A"/>
<path d="M161.078 224.045H166.592L169.215 202.973H161.078V224.045Z" fill="#A0616A"/>
<path d="M160.884 229.744H177.843V229.532C177.84 227.8 177.143 226.14 175.905 224.917C174.668 223.693 172.991 223.006 171.242 223.006L168.144 220.676L162.363 223.006H160.884V229.744Z" fill="#2F2E41"/>
<path d="M101.75 217.228L106.687 219.669L118.534 201.975L111.251 198.373L101.75 217.228Z" fill="#A0616A"/>
<path d="M99.0088 222.242L114.183 229.744L114.279 229.554C115.057 228.004 115.182 226.211 114.628 224.569C114.073 222.927 112.884 221.57 111.321 220.796L109.597 217.323L103.375 216.849L102.053 216.196L99.0088 222.242Z" fill="#2F2E41"/>
<path d="M125.419 135.034C125.419 135.034 123.216 161.287 122.741 166.923C122.418 170.446 121.623 173.91 120.376 177.225C120.376 177.225 119.42 179.101 119.42 180.976L108.705 200.273C108.705 200.273 105.425 202.66 105.9 204.536C106.375 206.411 103.924 207.535 103.924 207.535L115.219 209.692C115.219 209.692 114.745 208.287 116.176 207.819C117.607 207.352 118.725 203.282 118.725 203.282L134.582 177.683L145.941 154.243C145.941 154.243 152.565 175.337 153.986 177.683C153.986 177.683 159.191 203.933 160.138 206.279C161.084 208.625 161.556 208.621 161.094 209.559C160.632 210.497 160.619 211.435 161.094 211.902C161.569 212.369 170.557 211.902 170.557 211.902L168.192 178.621L163.914 138.785L142.145 132.221L125.419 135.034Z" fill="#2F2E41"/>
<path d="M146.732 72.3652C152.22 72.3652 156.67 67.9577 156.67 62.5207C156.67 57.0838 152.22 52.6763 146.732 52.6763C141.243 52.6763 136.794 57.0838 136.794 62.5207C136.794 67.9577 141.243 72.3652 146.732 72.3652Z" fill="#A0616A"/>
<path d="M164.861 86.7498L153.03 79.6648C153.03 79.6648 152.711 75.2446 149.33 75.0489C147.64 74.9447 145.1 74.7868 141.288 74.5437C140.482 74.49 139.94 78.8566 139.016 78.7966L126.528 82.077L128.421 113.966C128.421 113.966 125.581 126.623 126.528 128.966C127.475 131.309 124.163 132.246 125.11 132.717C126.056 133.187 125.11 136.468 125.11 136.468C125.11 136.468 143.564 145.842 163.914 138.81L162.021 132.707C162.277 131.91 162.324 131.061 162.157 130.24C161.989 129.42 161.614 128.655 161.065 128.019C161.065 128.019 162.958 125.206 160.59 122.863C160.59 122.863 161.546 118.645 159.172 116.769L158.7 110.205L160.118 106.925L164.861 86.7498Z" fill="#BDC9E5"/>
<path d="M138.11 68.1439L137.83 67.5124C137.795 67.4303 134.279 59.1993 137.397 54.1223C138.837 51.7733 141.46 50.4472 145.189 50.1789C151.025 49.7621 155.019 51.1261 157.062 54.2518C157.405 54.7802 157.598 55.3905 157.621 56.0184C157.643 56.6464 157.495 57.2688 157.19 57.8201C156.886 58.3713 156.437 58.8312 155.891 59.1511C155.345 59.4711 154.723 59.6393 154.088 59.6381H154.009L152.938 58.2615L152.874 58.3942C152.485 59.2277 151.599 59.6823 150.55 59.5813C150.372 59.5813 150.216 59.7202 150.088 60.0454C150.046 60.1874 149.966 60.3155 149.856 60.4166C149.747 60.5176 149.613 60.5879 149.467 60.62C148.695 60.7684 147.593 59.8055 147.102 59.3256C147.083 59.4358 147.041 59.5408 146.977 59.6334C146.914 59.726 146.832 59.8041 146.735 59.8623C146.216 60.1591 145.409 59.7707 145.177 59.6476C143.331 60.0359 142.136 59.9318 141.623 59.3319C141.275 61.7661 140.533 66.1422 139.637 66.3853C139.544 66.4066 139.446 66.3975 139.358 66.3594C139.27 66.3213 139.197 66.2562 139.15 66.1737C138.936 65.899 138.745 65.7601 138.624 65.798C138.334 65.8896 138.161 66.8399 138.136 67.4493L138.11 68.1439Z" fill="#2F2E41"/>
<path d="M159.656 87.2202L164.376 86.4593C167.774 89.6929 170.09 93.88 171.012 98.4571C172.43 105.959 172.905 107.364 172.905 107.364L161.546 110.177L155.395 98.4571L159.656 87.2202Z" fill="#BDC9E5"/>
<path d="M138.706 96.9781L135.789 133.612L210.239 139.429L213.156 102.795L138.706 96.9781Z" fill="white"/>
<path d="M153.849 123.125L141.894 122.178C141.193 122.144 140.506 122.382 139.979 122.842C139.452 123.301 139.127 123.946 139.072 124.639C139.017 125.332 139.236 126.019 139.684 126.555C140.132 127.09 140.772 127.432 141.47 127.507L153.425 128.455C154.127 128.488 154.813 128.25 155.34 127.791C155.867 127.331 156.193 126.687 156.248 125.993C156.303 125.3 156.083 124.613 155.636 124.078C155.188 123.542 154.547 123.2 153.849 123.125Z" fill="#E26D52"/>
<path d="M210.222 99.2401L143.198 93.9926C142.418 93.9318 141.634 94.0237 140.89 94.263C140.146 94.5024 139.458 94.8846 138.863 95.3877C138.268 95.8908 137.78 96.505 137.425 97.1953C137.07 97.8855 136.856 98.6383 136.794 99.4106L134.225 131.76C134.101 133.32 134.608 134.865 135.634 136.055C136.659 137.245 138.12 137.983 139.695 138.106L206.72 143.344C208.294 143.467 209.852 142.966 211.053 141.95C212.254 140.935 212.998 139.489 213.123 137.93L215.574 107.187L215.622 106.556L215.701 105.577C215.762 104.804 215.668 104.028 215.426 103.291C215.183 102.554 214.796 101.872 214.287 101.284C213.779 100.695 213.158 100.212 212.46 99.8614C211.763 99.5107 211.002 99.2996 210.222 99.2401ZM208.243 127.384L207.819 132.707C207.742 133.649 207.292 134.521 206.566 135.134C205.841 135.747 204.9 136.051 203.95 135.978L194.981 135.277C194.031 135.2 193.151 134.754 192.532 134.035C191.913 133.317 191.607 132.386 191.679 131.444L192.103 126.115C192.182 125.174 192.633 124.303 193.358 123.69C194.082 123.077 195.022 122.773 195.972 122.844L204.938 123.551C205.888 123.629 206.769 124.075 207.388 124.793C208.007 125.511 208.315 126.443 208.243 127.384ZM138.401 124.606C138.47 123.744 138.882 122.944 139.546 122.382C140.209 121.82 141.071 121.542 141.942 121.61L153.897 122.557C154.769 122.624 155.578 123.031 156.146 123.689C156.715 124.347 156.996 125.201 156.928 126.064C156.861 126.928 156.45 127.729 155.786 128.292C155.121 128.855 154.259 129.134 153.387 129.067L141.432 128.12C140.561 128.051 139.753 127.643 139.186 126.985C138.619 126.326 138.338 125.472 138.407 124.609L138.401 124.606Z" fill="#E26D52"/>
<path d="M135.789 109.616L135.739 110.245L214.417 116.365L214.467 115.736L135.789 109.616Z" fill="white"/>
<path d="M215.612 106.552L215.564 107.181L212.827 106.969L183.65 104.699L183.705 104.071L212.874 106.341L215.612 106.552Z" fill="#3F3D56"/>
<path d="M119.43 99.8715C119.43 99.8715 115.172 117.688 120.386 117.688C125.601 117.688 137.897 97.5288 137.897 97.5288L133.636 92.373L125.986 102.887L125.585 97.5193L119.43 99.8715Z" fill="#A0616A"/>
<path d="M136.749 98.3087C139.037 98.3087 140.892 96.471 140.892 94.2042C140.892 91.9373 139.037 90.0997 136.749 90.0997C134.461 90.0997 132.605 91.9373 132.605 94.2042C132.605 96.471 134.461 98.3087 136.749 98.3087Z" fill="#A0616A"/>
<path d="M129.977 84.8744L127.137 82.0612C127.137 82.0612 121.457 85.3448 120.985 88.6252C120.514 91.9057 118.146 102.221 118.146 102.221L126.895 102.925L129.731 98.7033L129.977 84.8744Z" fill="#BDC9E5"/>
</g>
<defs>
<clipPath id="clip0_4199_240">
<rect width="271" height="249" fill="white"/>
</clipPath>
</defs>
</svg>
