<svg width="271" height="249" viewBox="0 0 271 249" fill="none" xmlns="http://www.w3.org/2000/svg">
<g clip-path="url(#clip0_4199_241)">
<path d="M264.903 160.896C249.41 126.958 240.906 102.047 235.354 65.2486C230.101 30.4268 204.887 0.524115 167.127 0.00631866C123.64 -0.580938 105.001 33.5115 94.6173 69.5331C82.5917 111.238 44.1629 127.971 17.7979 159.033C-3.58541 184.215 -10.7281 226.574 25.1509 243.254C59.0411 258.999 94.5312 238.524 126.257 227.565C165.406 214.039 194.375 234.252 232.275 230.865C270.175 227.477 278.49 190.615 264.913 160.896C258.232 146.262 271.596 175.53 264.903 160.896Z" fill="#E2E6ED"/>
<path d="M143.37 230.135H79.7647C75.7812 230.128 71.9629 228.557 69.147 225.766C66.3311 222.975 64.7474 219.191 64.7432 215.245V52.6952C64.7474 48.748 66.3319 44.9637 69.1492 42.1723C71.9665 39.3809 75.7864 37.8104 79.7711 37.8054H143.37C147.355 37.8096 151.176 39.3797 153.994 42.1712C156.812 44.9626 158.397 48.7475 158.401 52.6952V215.245C158.397 219.193 156.812 222.978 153.994 225.769C151.176 228.561 147.355 230.131 143.37 230.135Z" fill="#2F2E41"/>
<path d="M143.436 226.116H79.6906C76.7009 226.113 73.8346 224.935 71.7206 222.84C69.6066 220.746 68.4174 217.907 68.4141 214.945V52.0827C68.4174 49.1211 69.6066 46.2818 71.7206 44.1877C73.8346 42.0935 76.7009 40.9156 79.6906 40.9122H143.436C146.425 40.9156 149.292 42.0935 151.406 44.1877C153.52 46.2818 154.709 49.1211 154.712 52.0827V214.945C154.709 217.907 153.52 220.746 151.406 222.84C149.292 224.935 146.425 226.113 143.436 226.116Z" fill="white"/>
<path d="M121.524 51.5049H101.243C100.677 51.5203 100.113 51.4231 99.5845 51.2189C99.0564 51.0147 98.575 50.7077 98.1687 50.3161C97.7624 49.9245 97.4394 49.4562 97.2189 48.9389C96.9984 48.4216 96.8848 47.8657 96.8848 47.3042C96.8848 46.7426 96.9984 46.1867 97.2189 45.6694C97.4394 45.1521 97.7624 44.6838 98.1687 44.2922C98.575 43.9006 99.0564 43.5936 99.5845 43.3894C100.113 43.1853 100.677 43.088 101.243 43.1034H121.524C122.09 43.088 122.655 43.1853 123.183 43.3894C123.711 43.5936 124.192 43.9006 124.598 44.2922C125.005 44.6838 125.328 45.1521 125.548 45.6694C125.769 46.1867 125.882 46.7426 125.882 47.3042C125.882 47.8657 125.769 48.4216 125.548 48.9389C125.328 49.4562 125.005 49.9245 124.598 50.3161C124.192 50.7077 123.711 51.0147 123.183 51.2189C122.655 51.4231 122.09 51.5203 121.524 51.5049Z" fill="#2F2E41"/>
<path d="M137.055 97.0868H83.8947C82.9138 97.0851 81.9736 96.6984 81.28 96.0113C80.5864 95.3242 80.196 94.3928 80.1943 93.4212V72.4915C80.196 71.5201 80.5865 70.589 81.2802 69.9025C81.9739 69.2159 82.9141 68.8298 83.8947 68.829H137.055C138.035 68.8298 138.975 69.216 139.668 69.9026C140.362 70.5893 140.751 71.5204 140.752 72.4915V93.4212C140.751 94.3926 140.362 95.324 139.669 96.0111C138.976 96.6983 138.036 97.0851 137.055 97.0868Z" fill="#BDC9E5"/>
<path d="M137.055 161.18H83.8947C82.9138 161.178 81.9736 160.791 81.28 160.104C80.5864 159.417 80.196 158.486 80.1943 157.514V136.585C80.196 135.613 80.5865 134.682 81.2802 133.996C81.9739 133.309 82.9141 132.923 83.8947 132.922H137.055C138.035 132.923 138.975 133.309 139.668 133.996C140.362 134.682 140.751 135.613 140.752 136.585V157.514C140.751 158.486 140.362 159.417 139.669 160.104C138.976 160.791 138.036 161.178 137.055 161.18Z" fill="#D8D8D8"/>
<path d="M136.74 128.758H115.838C114.806 128.756 113.817 128.349 113.088 127.627C112.359 126.904 111.948 125.924 111.946 124.903V104.832C111.947 103.809 112.357 102.829 113.087 102.106C113.816 101.382 114.806 100.975 115.838 100.973H136.74C137.772 100.975 138.762 101.382 139.491 102.106C140.221 102.829 140.631 103.809 140.632 104.832V124.903C140.63 125.924 140.219 126.904 139.49 127.627C138.76 128.349 137.772 128.756 136.74 128.758Z" fill="#D8D8D8"/>
<path d="M104.867 128.758H83.9649C82.9333 128.756 81.9444 128.349 81.2149 127.627C80.4855 126.904 80.0749 125.924 80.0732 124.903V104.832C80.0741 103.809 80.4843 102.829 81.2138 102.106C81.9434 101.382 82.9327 100.975 83.9649 100.973H104.867C105.899 100.975 106.888 101.382 107.618 102.106C108.348 102.829 108.758 103.809 108.759 104.832V124.903C108.757 125.924 108.346 126.904 107.617 127.627C106.887 128.349 105.899 128.756 104.867 128.758Z" fill="#D8D8D8"/>
<path d="M167.564 84.8365L166.222 88.1611C166.222 88.1611 164.985 92.815 166.435 94.6715C167.886 96.528 168.204 110.736 166.649 111.784C165.094 112.832 186.362 102.053 186.362 102.053C186.362 102.053 178.059 82.98 177.919 82.9105C177.779 82.8411 172.338 81.1614 172.338 81.1614L167.557 84.8365H167.564Z" fill="#2F2E43"/>
<path d="M181.409 101.27L174.282 103.591V93.4306H180.749L181.409 101.27Z" fill="#F2A2A5"/>
<path d="M158.675 158.957C158.289 161.284 156.721 162.954 155.169 162.686C153.617 162.418 152.68 160.312 153.068 157.982C153.207 157.048 153.581 156.164 154.155 155.411L155.921 145.57L160.727 146.568L158.474 156.163C158.769 157.065 158.835 158.024 158.665 158.957H158.675Z" fill="#F2A2A5"/>
<path d="M178.732 215.024H172.058V224.405H178.732V215.024Z" fill="#F2A2A5"/>
<path d="M165.556 230.085C164.855 230.085 164.23 230.085 163.759 230.025C161.987 229.864 160.294 228.566 159.443 227.815C159.255 227.65 159.123 227.432 159.066 227.189C159.009 226.947 159.029 226.693 159.124 226.463C159.194 226.298 159.3 226.151 159.436 226.032C159.571 225.913 159.731 225.827 159.905 225.778L164.594 224.452L172.176 219.381L172.266 219.533C172.679 220.26 173.021 221.024 173.289 221.816C173.338 221.954 173.358 222.1 173.346 222.246C173.334 222.392 173.29 222.534 173.219 222.662C173.132 222.791 173.009 222.892 172.865 222.952C173.002 223.094 173.432 223.385 174.758 223.584C176.693 223.9 177.104 221.901 177.117 221.819V221.753L177.174 221.715C178.095 221.127 178.662 220.859 178.857 220.916C178.978 220.951 179.176 221.014 179.733 226.422C180.001 227.264 180.062 228.157 179.912 229.027C179.628 230.321 173.917 229.876 172.775 229.775C172.74 229.775 168.466 230.091 165.537 230.091L165.556 230.085Z" fill="#2F2E43"/>
<path d="M198.225 207.806L192.552 211.31L197.571 219.283L203.244 215.779L198.225 207.806Z" fill="#F2A2A5"/>
<path d="M190.219 228.796C189.542 228.792 188.868 228.731 188.201 228.613C187.955 228.569 187.729 228.451 187.553 228.275C187.378 228.098 187.261 227.873 187.22 227.628C187.19 227.452 187.201 227.27 187.252 227.099C187.303 226.927 187.394 226.769 187.516 226.637L190.783 223.056L194.512 214.778L194.665 214.86C195.404 215.262 196.104 215.73 196.756 216.259C196.872 216.349 196.967 216.464 197.034 216.595C197.101 216.726 197.137 216.87 197.142 217.017C197.137 217.172 197.087 217.322 196.998 217.449C197.19 217.5 197.709 217.519 198.946 217.001C200.75 216.246 200.036 214.346 200.004 214.267L199.978 214.203L200.007 214.143C200.476 213.162 200.81 212.637 201.008 212.584C201.132 212.549 201.327 212.495 204.692 216.799C205.371 217.372 205.901 218.097 206.238 218.914C206.684 220.177 201.601 222.779 200.581 223.29C200.546 223.315 195.226 227.145 193.043 228.234C192.156 228.634 191.189 228.828 190.216 228.8L190.219 228.796Z" fill="#2F2E43"/>
<path d="M183.65 136.581H164.963L163.265 153.801L170.685 217.427H180.224L176.399 180.679L191.883 213.85L200.364 207.971L188.281 177.004C188.281 177.004 192.597 150.022 189.203 143.3C185.808 136.578 183.65 136.581 183.65 136.581Z" fill="#2F2E43"/>
<path d="M192.94 137.633H160.507L172.166 99.6253H185.097L192.94 137.633Z" fill="#4F75EC"/>
<path d="M174.209 99.6316C174.209 99.6316 166.155 99.42 165.307 101.526C164.459 103.632 154.496 153.599 154.496 153.599H161.068L174.212 99.6316H174.209Z" fill="#4F75EC"/>
<path d="M182.184 90.34C182.812 86.5052 180.184 82.8918 176.312 82.2694C172.441 81.6469 168.794 84.251 168.165 88.0858C167.537 91.9206 170.166 95.534 174.037 96.1565C177.908 96.779 181.556 94.1748 182.184 90.34Z" fill="#F2A2A5"/>
<path d="M176.545 78.2788C176.545 78.2788 185.093 76.1097 187.701 87.3781C187.701 87.3781 187.771 90.3176 189.259 91.5079C190.748 92.6982 190.247 98.858 190.247 98.858C190.247 98.858 193.074 103.477 190.671 105.577C190.671 105.577 189.61 109.845 191.165 112.295C192.721 114.746 198.585 128.221 188.832 129.029C188.832 129.029 183.885 126.071 186.219 117.252C188.552 108.434 185.935 103.562 185.935 103.562C185.935 103.562 178.445 100.872 178.869 95.1324C179.293 89.3925 174.066 83.7346 173.718 83.8072C173.371 83.8798 169.689 81.7771 168.064 88.2274L166.324 87.9338C166.324 87.9338 165.591 77.098 176.545 78.2883V78.2788Z" fill="#2F2E43"/>
<path d="M198.481 157.827C198.955 160.138 198.085 162.247 196.543 162.544C195 162.841 193.355 161.199 192.893 158.888C192.69 157.966 192.722 157.009 192.986 156.103L191.108 146.284L195.959 145.523L197.295 155.285C197.893 156.025 198.299 156.899 198.477 157.83L198.481 157.827Z" fill="#4F75EC"/>
<path d="M179.452 99.6758C179.452 99.6758 186.547 98.7854 187.395 100.885C188.243 102.985 198.203 152.961 198.203 152.961H191.631L179.449 99.6758H179.452Z" fill="#4F75EC"/>
</g>
<defs>
<clipPath id="clip0_4199_241">
<rect width="271" height="249" fill="white"/>
</clipPath>
</defs>
</svg>
