<svg width="221" height="200" viewBox="0 0 221 200" fill="none" xmlns="http://www.w3.org/2000/svg">
<g clip-path="url(#clip0_5419_5)">
<path d="M216.028 129.233C203.393 101.974 196.459 81.9649 191.931 52.408C187.647 24.4387 167.085 0.420442 136.292 0.00454185C100.829 -0.46715 85.6286 26.9164 77.1604 55.8493C67.3536 89.3471 36.015 102.788 14.5143 127.737C-2.92372 147.964 -8.74854 181.986 20.5107 195.384C48.1481 208.031 77.0902 191.585 102.963 182.783C134.889 171.919 158.513 188.154 189.42 185.433C220.327 182.712 227.109 153.104 216.036 129.233C210.588 117.479 221.486 140.987 216.028 129.233Z" fill="#E2E6ED"/>
<path d="M109.767 28.8745H64.1303C60.5456 28.8745 57.1078 30.2639 54.5731 32.7369C52.0384 35.21 50.6144 38.5642 50.6144 42.0616V46.0862C50.5344 46.0642 50.4507 46.0579 50.3681 46.0675C50.2855 46.0772 50.2057 46.1027 50.1333 46.1425C50.0609 46.1823 49.9972 46.2357 49.9459 46.2996C49.8947 46.3635 49.8569 46.4366 49.8346 46.5148C49.8186 46.57 49.8116 46.6273 49.8139 46.6847V49.7786C49.8125 49.8589 49.8274 49.9388 49.8578 50.0134C49.8882 50.0881 49.9335 50.1562 49.991 50.2137C50.0485 50.2713 50.1171 50.3171 50.1929 50.3486C50.2687 50.3801 50.3501 50.3967 50.4325 50.3974C50.4912 50.3994 50.55 50.3925 50.6066 50.3771V55.0636C50.5267 55.0408 50.443 55.0339 50.3604 55.043C50.2777 55.0522 50.1977 55.0774 50.1252 55.117C50.0526 55.1567 49.9888 55.2101 49.9376 55.274C49.8864 55.338 49.8487 55.4113 49.8268 55.4896C49.811 55.5449 49.804 55.6022 49.8061 55.6595V63.3968C49.805 63.4771 49.8202 63.5567 49.8507 63.6313C49.8813 63.7058 49.9266 63.7737 49.984 63.8312C50.0414 63.8887 50.1099 63.9345 50.1855 63.9662C50.2611 63.9978 50.3424 64.0146 50.4247 64.0156C50.4834 64.0176 50.5422 64.0107 50.5988 63.9953V66.8229C50.5188 66.8006 50.435 66.794 50.3523 66.8035C50.2696 66.813 50.1897 66.8384 50.1172 66.8783C50.0446 66.9181 49.9809 66.9716 49.9298 67.0357C49.8786 67.0998 49.841 67.1731 49.819 67.2515C49.803 67.3067 49.796 67.364 49.7983 67.4214V75.146C49.7972 75.2262 49.8124 75.3059 49.8429 75.3805C49.8735 75.455 49.9188 75.5229 49.9762 75.5804C50.0336 75.6379 50.1021 75.6837 50.1777 75.7153C50.2533 75.747 50.3346 75.7638 50.4169 75.7648C50.4757 75.7647 50.5342 75.757 50.591 75.7419V157.451C50.591 160.949 52.015 164.303 54.5497 166.776C57.0844 169.249 60.5223 170.638 64.1069 170.638H109.767C113.349 170.635 116.784 169.244 119.316 166.771C121.848 164.299 123.27 160.946 123.27 157.451V42.0489C123.267 38.5559 121.843 35.2069 119.311 32.7369C116.78 30.267 113.347 28.8779 109.767 28.8745ZM120.424 157.449C120.424 160.206 119.301 162.851 117.303 164.801C115.304 166.751 112.593 167.846 109.767 167.846H64.1303C61.3039 167.846 58.5933 166.751 56.5948 164.801C54.5963 162.851 53.4735 160.206 53.4735 157.449V42.0489C53.4735 39.2913 54.5963 36.6467 56.5948 34.6968C58.5933 32.7469 61.3039 31.6514 64.1303 31.6514H109.767C112.593 31.6514 115.304 32.7469 117.303 34.6968C119.301 36.6467 120.424 39.2913 120.424 42.0489V157.449Z" fill="#3F3D56"/>
<path d="M109.767 169.388H64.13C60.8865 169.384 57.777 168.125 55.4835 165.887C53.1899 163.65 51.8996 160.616 51.8955 157.451V42.0491C51.8996 38.8847 53.19 35.8511 55.4836 33.6138C57.7772 31.3765 60.8867 30.1181 64.13 30.1147H109.767C113.01 30.1181 116.119 31.3765 118.412 33.6139C120.705 35.8513 121.995 38.8849 121.999 42.0491V157.451C121.996 160.616 120.706 163.65 118.413 165.888C116.12 168.126 113.01 169.385 109.767 169.388Z" fill="#E6E6E6"/>
<path d="M110.895 167.532H63.0025C60.8146 167.529 58.7172 166.68 57.1701 165.171C55.6231 163.661 54.7528 161.615 54.75 159.48V40.0204C54.7528 37.886 55.6232 35.8398 57.1703 34.3308C58.7174 32.8218 60.8149 31.9732 63.0025 31.9712H69.2406C69.6023 31.9719 69.949 32.1123 70.2047 32.3619C70.4605 32.6114 70.6045 32.9497 70.6052 33.3026C70.6058 34.3444 71.0302 35.3435 71.785 36.0804C72.5398 36.8174 73.5635 37.232 74.6313 37.2333H98.622C99.6898 37.2313 100.713 36.8166 101.468 36.0798C102.224 35.3431 102.649 34.3445 102.651 33.3026C102.651 32.9495 102.795 32.6108 103.05 32.3611C103.306 32.1115 103.653 31.9712 104.015 31.9712H110.895C113.083 31.9739 115.179 32.8228 116.726 34.3317C118.272 35.8406 119.143 37.8864 119.145 40.0204V159.48C119.143 161.615 118.273 163.661 116.727 165.171C115.18 166.68 113.083 167.529 110.895 167.532Z" fill="white"/>
<path d="M89.0097 34.6794H83.2914C83.1232 34.6794 82.9619 34.6143 82.843 34.4982C82.724 34.3822 82.6572 34.2248 82.6572 34.0607C82.6572 33.8966 82.724 33.7392 82.843 33.6231C82.9619 33.5071 83.1232 33.4419 83.2914 33.4419H89.0097C89.1779 33.4419 89.3392 33.5071 89.4581 33.6231C89.5771 33.7392 89.6439 33.8966 89.6439 34.0607C89.6439 34.2248 89.5771 34.3822 89.4581 34.4982C89.3392 34.6143 89.1779 34.6794 89.0097 34.6794Z" fill="white"/>
<path d="M92.9734 34.525C93.1485 34.525 93.2905 34.3865 93.2905 34.2156C93.2905 34.0448 93.1485 33.9062 92.9734 33.9062C92.7982 33.9062 92.6562 34.0448 92.6562 34.2156C92.6562 34.3865 92.7982 34.525 92.9734 34.525Z" fill="white"/>
<path d="M120.686 56.1489H53.1436V56.8539H120.686V56.1489Z" fill="#E6E6E6"/>
<path d="M120.686 70.2568H53.1436V70.9618H120.686V70.2568Z" fill="#E6E6E6"/>
<path d="M120.686 99.4131H53.1436V100.118H120.686V99.4131Z" fill="#E6E6E6"/>
<path d="M120.686 128.566H53.1436V129.271H120.686V128.566Z" fill="#E6E6E6"/>
<path d="M120.686 151.373H53.1436V152.078H120.686V151.373Z" fill="#E6E6E6"/>
<path d="M102.195 56.5039H101.473V99.7652H102.195V56.5039Z" fill="#E6E6E6"/>
<path d="M68.3827 99.7529H67.6602V151.725H68.3827V99.7529Z" fill="#E6E6E6"/>
<path d="M119.145 114.007H68.0215V114.712H119.145V114.007Z" fill="#E6E6E6"/>
<path d="M102.273 151.725H101.551V167.532H102.273V151.725Z" fill="#E6E6E6"/>
<path d="M101.714 85.1226H54.6299V85.8276H101.714V85.1226Z" fill="#E6E6E6"/>
<path d="M64.4625 31.5252L63.7959 31.7974L74.4507 56.6368L75.1173 56.3646L64.4625 31.5252Z" fill="#E6E6E6"/>
<path d="M97.2782 37.2334H96.5557V56.5043H97.2782V37.2334Z" fill="#E6E6E6"/>
<path d="M115.92 67.2008C115.92 73.5204 105.905 88.2494 102.978 92.416C102.889 92.541 102.77 92.6432 102.632 92.7137C102.494 92.7843 102.34 92.8211 102.184 92.8211C102.028 92.8211 101.874 92.7843 101.736 92.7137C101.598 92.6432 101.479 92.541 101.39 92.416C98.4633 88.2469 88.4486 73.5204 88.4486 67.2008C88.4235 65.4254 88.7603 63.6628 89.4394 62.0155C90.1184 60.3681 91.1262 58.8688 92.4041 57.6047C93.682 56.3406 95.2047 55.3368 96.8836 54.6517C98.5625 53.9666 100.364 53.6138 102.184 53.6138C104.004 53.6138 105.806 53.9666 107.485 54.6517C109.163 55.3368 110.686 56.3406 111.964 57.6047C113.242 58.8688 114.25 60.3681 114.929 62.0155C115.608 63.6628 115.945 65.4254 115.92 67.2008Z" fill="#E26D52"/>
<path d="M102.183 73.0794C106.043 73.0794 109.172 70.0263 109.172 66.2602C109.172 62.494 106.043 59.4409 102.183 59.4409C98.3226 59.4409 95.1934 62.494 95.1934 66.2602C95.1934 70.0263 98.3226 73.0794 102.183 73.0794Z" fill="white"/>
<path d="M101.728 99.973L75.2607 151.564L75.9069 151.88L102.375 100.289L101.728 99.973Z" fill="#E6E6E6"/>
<path d="M139.842 111.314C140.154 111.478 140.499 111.574 140.853 111.593C141.207 111.613 141.561 111.557 141.89 111.428C142.219 111.3 142.515 111.102 142.757 110.85C142.999 110.598 143.182 110.297 143.292 109.968L151.903 109.823L149.374 106.222L141.576 106.912C140.999 106.768 140.387 106.836 139.858 107.103C139.328 107.37 138.917 107.816 138.702 108.359C138.488 108.901 138.485 109.502 138.693 110.046C138.902 110.591 139.308 111.042 139.835 111.314H139.842Z" fill="#FFB8B8"/>
<path d="M145.009 111.21C144.747 111.21 144.496 111.109 144.311 110.928C144.126 110.747 144.021 110.502 144.021 110.246V110.203L144.196 106.351C144.206 106.122 144.3 105.903 144.46 105.736C144.621 105.568 144.838 105.461 145.072 105.436L155.045 104.32L154.712 110.738L145.069 111.208L145.009 111.21Z" fill="#4F75EC"/>
<path d="M157.158 164.012L154.348 164.907L149.475 154.763L153.62 153.442L157.158 164.012Z" fill="#FFB8B8"/>
<path d="M158.762 166.442L149.709 169.328L149.67 169.216C149.519 168.764 149.46 168.288 149.497 167.814C149.535 167.34 149.667 166.878 149.888 166.454C150.108 166.03 150.412 165.653 150.782 165.343C151.151 165.034 151.58 164.799 152.043 164.651L157.574 162.876L158.762 166.442Z" fill="#2F2E41"/>
<path d="M165.429 168.252H162.476L161.07 157.134H165.429V168.252Z" fill="#FFB8B8"/>
<path d="M166.182 171.047H156.656V170.927C156.657 169.968 157.048 169.048 157.744 168.37C158.439 167.692 159.382 167.311 160.365 167.311H166.182V171.047Z" fill="#2F2E41"/>
<path d="M160.942 165.546C160.701 165.546 160.468 165.46 160.287 165.303C160.107 165.146 159.991 164.931 159.963 164.697L156.152 133.628L150.577 142.35L157.119 158.661C157.208 158.887 157.208 159.136 157.118 159.362C157.028 159.587 156.855 159.771 156.633 159.878L151.084 162.528C150.849 162.641 150.577 162.657 150.33 162.574C150.082 162.492 149.879 162.316 149.763 162.087C149.743 162.048 149.725 162.007 149.711 161.965L143.562 143.846C143.098 142.482 143.038 141.017 143.387 139.621L147.364 123.7L147.411 123.675L156.373 118.884L156.425 118.902L166.983 122.66L165.878 143.072L166.679 164.261C166.69 164.512 166.599 164.757 166.425 164.944C166.252 165.13 166.011 165.243 165.754 165.257L161.005 165.544L160.942 165.546Z" fill="#2F2E41"/>
<path d="M155.129 129.748C153.551 129.748 152.223 129.312 151.391 128.196L151.362 128.161L151.9 122.653L147.118 125.245C147.019 125.295 146.906 125.315 146.795 125.302C146.684 125.289 146.58 125.243 146.496 125.172C146.412 125.1 146.352 125.005 146.324 124.9C146.295 124.794 146.301 124.683 146.338 124.58L152.316 109.111L156.246 96.5246C156.443 95.5173 156.948 94.5918 157.694 93.8702C158.441 93.1485 159.394 92.6646 160.428 92.4823C163.94 91.8533 166.03 93.0097 168.444 95.5736C169.028 96.1973 169.458 96.9428 169.701 97.7533C169.944 98.5637 169.994 99.4177 169.848 100.25L167.563 112.986L168.234 124.398C168.285 124.594 168.272 124.801 168.195 124.99C168.119 125.179 167.983 125.339 167.808 125.447C165.931 126.611 160.207 129.748 155.129 129.748Z" fill="#4F75EC"/>
<path d="M163.113 90.5752C166.381 90.5752 169.031 87.9899 169.031 84.8008C169.031 81.6117 166.381 79.0264 163.113 79.0264C159.844 79.0264 157.194 81.6117 157.194 84.8008C157.194 87.9899 159.844 90.5752 163.113 90.5752Z" fill="#FFB8B8"/>
<path d="M164.655 125.965C164.945 125.835 165.206 125.651 165.423 125.423C165.64 125.195 165.809 124.927 165.92 124.635C166.03 124.343 166.081 124.033 166.069 123.722C166.056 123.411 165.981 123.105 165.848 122.823C165.789 122.695 165.717 122.574 165.635 122.46L170.711 115.674L166.243 115.468L162.108 121.945C161.638 122.307 161.322 122.824 161.218 123.399C161.115 123.973 161.232 124.565 161.546 125.061C161.861 125.557 162.352 125.922 162.925 126.088C163.498 126.254 164.114 126.208 164.655 125.96V125.965Z" fill="#FFB8B8"/>
<path d="M167.405 122.135C167.156 122.169 166.904 122.11 166.698 121.97L163.337 119.688C163.134 119.551 162.99 119.345 162.936 119.11C162.882 118.875 162.92 118.629 163.043 118.42L169.021 108.023L163.004 100.97C162.414 100.259 162.135 99.3504 162.227 98.4402C162.319 97.5301 162.775 96.692 163.496 96.1076C164.217 95.5232 165.145 95.2395 166.079 95.318C167.013 95.3965 167.878 95.8309 168.486 96.527C168.62 96.6858 168.74 96.8555 168.845 97.0342L175.48 108.477C175.527 108.558 175.552 108.649 175.552 108.743C175.552 108.836 175.527 108.928 175.48 109.009L168.122 121.656C168.054 121.772 167.962 121.874 167.852 121.954C167.742 122.033 167.616 122.09 167.483 122.12L167.405 122.135Z" fill="#4F75EC"/>
<path d="M160.748 84.0628C160.161 83.6368 159.35 83.7027 158.656 83.4796C158.243 83.3458 157.873 83.1087 157.584 82.7919C157.295 82.4752 157.096 82.0899 157.007 81.6745C156.918 81.2592 156.942 80.8283 157.077 80.425C157.212 80.0217 157.454 79.6601 157.777 79.3763C158.528 78.7221 159.597 78.5724 160.592 78.4532C161.962 78.2884 163.345 78.1236 164.717 78.2554C166.089 78.3873 167.47 78.8387 168.473 79.7618C169.58 80.7762 170.123 82.2978 170.129 83.7763C170.09 85.267 169.671 86.7247 168.907 88.0164C168.67 88.5082 168.313 88.9358 167.867 89.2616C167.405 89.5583 166.755 89.6369 166.308 89.3148C165.923 89.0384 165.788 88.554 165.609 88.1179C165.429 87.6817 165.138 87.2201 164.665 87.1542C164.057 87.0654 163.592 87.6614 163.009 87.8693C162.196 88.1458 161.294 87.5346 160.961 86.7586C160.628 85.9826 160.717 85.1051 160.81 84.2708" fill="#2F2E41"/>
<path d="M102.183 102.702C103.913 102.702 105.315 101.334 105.315 99.6462C105.315 97.9585 103.913 96.5903 102.183 96.5903C100.453 96.5903 99.0508 97.9585 99.0508 99.6462C99.0508 101.334 100.453 102.702 102.183 102.702Z" fill="#E26D52"/>
<path d="M145.366 59.9126C144.881 59.5569 144.328 59.2981 143.74 59.1508C143.152 59.0036 142.54 58.9708 141.939 59.0544C141.338 59.138 140.76 59.3363 140.237 59.6381C139.715 59.9398 139.258 60.339 138.894 60.8129C137.595 62.5145 137.233 68.4512 137.158 70.1503C137.155 70.1898 137.161 70.2295 137.174 70.267C137.201 70.3462 137.26 70.4114 137.337 70.4485C137.414 70.4856 137.503 70.4914 137.584 70.4648C139.235 69.9196 144.979 67.9288 146.289 66.2272C147.024 65.2703 147.34 64.0676 147.167 62.8835C146.994 61.6994 146.347 60.6308 145.366 59.9126ZM142.785 65.5628C142.319 65.5653 141.862 65.4325 141.473 65.1813C141.085 64.93 140.781 64.5717 140.601 64.1519C140.422 63.732 140.374 63.2695 140.465 62.8231C140.555 62.3767 140.779 61.9666 141.109 61.6449C141.439 61.3231 141.859 61.1043 142.316 61.0162C142.774 60.928 143.248 60.9745 143.678 61.1498C144.109 61.3251 144.476 61.6212 144.733 62.0006C144.991 62.3799 145.127 62.8254 145.124 63.2804C145.121 63.8847 144.874 64.4633 144.436 64.8906C143.998 65.3179 143.405 65.5594 142.785 65.5628Z" fill="#BDC9E5"/>
<path d="M135.874 73.2848C136.456 73.2848 136.929 72.8238 136.929 72.2552C136.929 71.6866 136.456 71.2256 135.874 71.2256C135.291 71.2256 134.818 71.6866 134.818 72.2552C134.818 72.8238 135.291 73.2848 135.874 73.2848Z" fill="#BDC9E5"/>
<path d="M31.6215 112.892C31.0845 112.092 30.3915 111.404 29.582 110.866C28.7724 110.328 27.8622 109.951 26.9033 109.756C25.9444 109.561 24.9556 109.553 23.9932 109.731C23.0309 109.909 22.114 110.27 21.2948 110.794C20.4756 111.318 19.7702 111.994 19.2188 112.784C18.6674 113.574 18.2809 114.462 18.0813 115.398C17.8817 116.333 17.8729 117.298 18.0555 118.237C18.238 119.176 18.6084 120.07 19.1453 120.87C21.0687 123.738 30.1035 127.522 32.7027 128.566C32.7812 128.598 32.8665 128.611 32.9512 128.603C33.0358 128.596 33.1173 128.568 33.1884 128.522C33.2594 128.477 33.318 128.415 33.3588 128.342C33.3997 128.269 33.4216 128.188 33.4227 128.105C33.4851 125.358 33.5475 115.762 31.6215 112.892ZM25.0974 120.15C24.3472 120.151 23.6135 119.934 22.9892 119.528C22.3649 119.122 21.878 118.545 21.5902 117.869C21.3023 117.193 21.2265 116.449 21.3722 115.731C21.518 115.013 21.8787 114.353 22.4089 113.835C22.939 113.317 23.6147 112.964 24.3505 112.821C25.0863 112.678 25.849 112.751 26.5423 113.031C27.2355 113.311 27.8281 113.785 28.245 114.393C28.6619 115.002 28.8845 115.718 28.8845 116.45C28.8845 117.43 28.4857 118.37 27.7756 119.064C27.0655 119.758 26.1023 120.148 25.0974 120.15Z" fill="#BDC9E5"/>
<path d="M35.2682 133.268C36.2071 133.268 36.9681 132.526 36.9681 131.61C36.9681 130.694 36.2071 129.951 35.2682 129.951C34.3294 129.951 33.5684 130.694 33.5684 131.61C33.5684 132.526 34.3294 133.268 35.2682 133.268Z" fill="#BDC9E5"/>
</g>
<defs>
<clipPath id="clip0_5419_5">
<rect width="221" height="200" fill="white"/>
</clipPath>
</defs>
</svg>
