<svg width="271" height="249" viewBox="0 0 271 249" fill="none" xmlns="http://www.w3.org/2000/svg">
<g clip-path="url(#clip0_4199_243)">
<path d="M264.903 160.896C249.41 126.958 240.906 102.047 235.354 65.2485C230.101 30.4267 204.887 0.523993 167.127 0.00619659C123.64 -0.58106 105.001 33.5114 94.6173 69.533C82.5917 111.238 44.1629 127.971 17.7979 159.033C-3.58543 184.215 -10.7281 226.574 25.1509 243.254C59.0411 259.012 94.5312 238.518 126.257 227.565C165.406 214.039 194.375 234.252 232.275 230.864C270.127 227.483 278.474 190.615 264.913 160.896C258.232 146.262 271.596 175.53 264.903 160.896Z" fill="#E2E6ED"/>
<path d="M226.898 193.163L236.559 194.66C239.829 190.738 242.083 186.084 243.125 181.102C236.062 186.83 225.317 183.786 216.753 186.915C214.09 187.91 211.688 189.485 209.722 191.524C207.757 193.563 206.28 196.014 205.4 198.695L200.677 203.746C204.951 205.422 209.541 206.16 214.131 205.91C218.721 205.659 223.202 204.427 227.265 202.297C229.531 201.078 231.634 199.583 233.525 197.846C230.143 195.727 226.898 193.163 226.898 193.163Z" fill="#F2F2F2"/>
<path d="M223.468 177.857L232.788 174.927C233.948 169.971 233.871 164.81 232.561 159.892C228.816 168.139 217.833 170.159 211.573 176.742C209.637 178.81 208.195 181.283 207.355 183.978C206.514 186.673 206.297 189.521 206.719 192.311L204.759 198.903C209.338 198.514 213.779 197.147 217.774 194.895C221.769 192.644 225.224 189.561 227.901 185.86C229.382 183.772 230.591 181.507 231.5 179.12C227.525 178.719 223.468 177.857 223.468 177.857Z" fill="#F2F2F2"/>
<path d="M116.746 190.77C154.592 190.77 185.272 160.378 185.272 122.888C185.272 85.3981 154.592 55.0064 116.746 55.0064C78.8999 55.0064 48.2197 85.3981 48.2197 122.888C48.2197 160.378 78.8999 190.77 116.746 190.77Z" fill="#BDC9E5"/>
<path d="M175.71 122.885C175.718 131.999 173.569 140.988 169.436 149.131C165.303 157.274 159.301 164.344 151.911 169.774C151.417 170.14 150.913 170.497 150.406 170.844C140.526 177.65 128.78 181.297 116.746 181.297C104.712 181.297 92.9656 177.65 83.0851 170.844C82.5783 170.497 82.0748 170.14 81.5807 169.774C55.4452 150.533 49.9949 113.94 69.4181 88.0443C72.8578 83.4624 76.9554 79.4034 81.5807 75.9961C82.0748 75.6298 82.5783 75.273 83.0851 74.9257C92.9656 68.1205 104.712 64.4729 116.746 64.4729C128.78 64.4729 140.526 68.1205 150.406 74.9257C150.913 75.273 151.417 75.6298 151.911 75.9961C159.301 81.4258 165.303 88.4958 169.436 96.6387C173.569 104.782 175.718 113.771 175.71 122.885Z" fill="white"/>
<path d="M116.747 176.246C146.495 176.246 170.611 152.357 170.611 122.888C170.611 93.4192 146.495 69.5299 116.747 69.5299C86.9979 69.5299 62.8818 93.4192 62.8818 122.888C62.8818 152.357 86.9979 176.246 116.747 176.246Z" fill="#4F75EC"/>
<path opacity="0.2" d="M116.886 69.6752C116.07 69.6752 115.261 69.6973 114.451 69.732C128.061 70.922 140.707 77.1913 149.826 87.2703C158.946 97.3493 163.858 110.485 163.567 124.016C163.277 137.548 157.807 150.465 148.264 160.152C138.721 169.838 125.818 175.57 112.169 176.186C113.724 176.321 115.297 176.39 116.886 176.392C131.172 176.392 144.873 170.77 154.974 160.763C165.076 150.757 170.751 137.185 170.751 123.033C170.751 108.882 165.076 95.3101 154.974 85.3034C144.873 75.2968 131.172 69.6752 116.886 69.6752Z" fill="black"/>
<path d="M116.905 65.738C116.441 65.7397 115.996 65.9232 115.668 66.2485C115.339 66.5738 115.154 67.0145 115.152 67.4745V75.052C115.152 75.5126 115.337 75.9543 115.666 76.2799C115.995 76.6056 116.44 76.7886 116.905 76.7886C117.37 76.7886 117.816 76.6056 118.145 76.2799C118.474 75.9543 118.658 75.5126 118.658 75.052V67.4745C118.657 67.0142 118.473 66.573 118.144 66.2476C117.815 65.9221 117.37 65.7389 116.905 65.738Z" fill="white"/>
<path d="M151.912 75.9961C151.418 75.6298 150.914 75.273 150.407 74.9257C150.103 74.9065 149.799 74.966 149.525 75.0983C149.252 75.2306 149.017 75.4312 148.845 75.6803L144.539 81.9412C144.404 82.1295 144.308 82.3426 144.257 82.5682C144.205 82.7937 144.2 83.0271 144.241 83.2547C144.282 83.4823 144.369 83.6995 144.496 83.8935C144.623 84.0875 144.787 84.2544 144.98 84.3846C145.173 84.5147 145.39 84.6054 145.619 84.6512C145.848 84.6971 146.083 84.6973 146.312 84.6517C146.541 84.6062 146.758 84.5158 146.951 84.386C147.144 84.2562 147.309 84.0894 147.437 83.8956L151.755 77.6347C151.918 77.3965 152.018 77.1215 152.045 76.8352C152.072 76.5488 152.026 76.2602 151.912 75.9961Z" fill="white"/>
<path d="M171.475 104.544C171.299 104.12 170.96 103.782 170.533 103.604C170.106 103.426 169.625 103.424 169.196 103.597L162.107 106.439C161.683 106.616 161.347 106.952 161.17 107.374C160.994 107.796 160.993 108.269 161.166 108.692C161.339 109.114 161.674 109.453 162.097 109.633C162.52 109.813 162.998 109.822 163.427 109.656L170.515 106.814C170.729 106.728 170.923 106.6 171.087 106.439C171.251 106.278 171.381 106.087 171.47 105.876C171.559 105.665 171.605 105.439 171.606 105.211C171.607 104.982 171.562 104.756 171.475 104.544Z" fill="white"/>
<path d="M88.9657 81.9412L84.6597 75.6803C84.488 75.4309 84.2537 75.2302 83.9798 75.0979C83.706 74.9655 83.402 74.9062 83.098 74.9257C82.5912 75.273 82.0876 75.6298 81.5936 75.9961C81.4823 76.2616 81.4395 76.5505 81.469 76.8365C81.4985 77.1226 81.5993 77.3969 81.7625 77.6347L86.0684 83.8956C86.3345 84.2654 86.7363 84.5172 87.1876 84.597C87.6388 84.6769 88.1036 84.5785 88.4825 84.3229C88.8614 84.0673 89.1242 83.6749 89.2145 83.2297C89.3048 82.7845 89.2155 82.322 88.9657 81.9412Z" fill="white"/>
<path d="M71.3884 106.442L64.2999 103.6C63.8708 103.435 63.393 103.443 62.9699 103.623C62.5469 103.804 62.2124 104.142 62.0391 104.565C61.8657 104.987 61.8673 105.461 62.0434 105.882C62.2196 106.304 62.5561 106.64 62.9804 106.818L70.0688 109.659C70.2828 109.749 70.5126 109.795 70.7449 109.796C70.9772 109.797 71.2074 109.752 71.422 109.664C71.6367 109.576 71.8315 109.447 71.9952 109.284C72.1589 109.12 72.2883 108.927 72.3757 108.713C72.4631 108.5 72.5069 108.272 72.5045 108.042C72.5021 107.812 72.4536 107.584 72.3617 107.373C72.2698 107.162 72.1365 106.971 71.9694 106.811C71.8023 106.651 71.6048 106.525 71.3884 106.442Z" fill="white"/>
<path d="M116.905 168.982C116.441 168.983 115.996 169.167 115.668 169.492C115.339 169.817 115.154 170.258 115.152 170.718V178.296C115.152 178.756 115.337 179.198 115.666 179.523C115.995 179.849 116.44 180.032 116.905 180.032C117.37 180.032 117.816 179.849 118.145 179.523C118.474 179.198 118.658 178.756 118.658 178.296V170.718C118.657 170.258 118.473 169.817 118.144 169.491C117.815 169.166 117.37 168.982 116.905 168.982Z" fill="white"/>
<path d="M151.755 168.135L147.449 161.874C147.322 161.681 147.157 161.514 146.964 161.384C146.771 161.254 146.554 161.164 146.325 161.118C146.096 161.073 145.86 161.073 145.632 161.119C145.403 161.165 145.186 161.255 144.993 161.385C144.8 161.516 144.635 161.683 144.508 161.877C144.381 162.071 144.295 162.288 144.254 162.515C144.213 162.743 144.218 162.976 144.269 163.202C144.321 163.427 144.417 163.641 144.552 163.829L148.858 170.09C149.03 170.339 149.264 170.54 149.538 170.673C149.812 170.805 150.116 170.864 150.42 170.844C150.927 170.497 151.43 170.14 151.924 169.774C152.037 169.509 152.081 169.22 152.051 168.933C152.022 168.647 151.92 168.372 151.755 168.135Z" fill="white"/>
<path d="M170.512 138.962L163.424 136.12C162.995 135.955 162.517 135.963 162.094 136.143C161.671 136.324 161.336 136.662 161.163 137.085C160.99 137.507 160.991 137.981 161.167 138.402C161.344 138.824 161.68 139.16 162.104 139.338L169.193 142.179C169.407 142.269 169.637 142.316 169.869 142.316C170.101 142.317 170.331 142.272 170.546 142.184C170.761 142.096 170.955 141.967 171.119 141.804C171.283 141.641 171.412 141.447 171.5 141.234C171.587 141.02 171.631 140.792 171.629 140.562C171.626 140.332 171.578 140.105 171.486 139.893C171.394 139.682 171.26 139.491 171.093 139.331C170.926 139.171 170.729 139.046 170.512 138.962Z" fill="white"/>
<path d="M88.4909 161.417C88.1066 161.158 87.6343 161.06 87.1777 161.146C86.721 161.232 86.3175 161.494 86.0558 161.874L81.7498 168.135C81.5867 168.373 81.4858 168.648 81.4563 168.934C81.4268 169.22 81.4696 169.508 81.5809 169.774C82.0749 170.14 82.5785 170.497 83.0853 170.844C83.3894 170.864 83.6936 170.805 83.9676 170.673C84.2416 170.541 84.4758 170.34 84.647 170.09L88.9658 163.829C89.2273 163.448 89.3255 162.98 89.2388 162.528C89.1521 162.076 88.8877 161.676 88.5036 161.417H88.4909Z" fill="white"/>
<path d="M72.3507 137.064C72.1748 136.64 71.8361 136.302 71.4089 136.124C70.9817 135.947 70.5008 135.944 70.0718 136.117L62.9833 138.959C62.5591 139.137 62.2225 139.473 62.0463 139.894C61.8702 140.316 61.8686 140.789 62.042 141.212C62.2154 141.635 62.5498 141.973 62.9729 142.153C63.3959 142.334 63.8737 142.342 64.3029 142.176L71.3913 139.335C71.6048 139.248 71.799 139.121 71.9628 138.96C72.1266 138.799 72.2567 138.607 72.3458 138.396C72.4349 138.186 72.4811 137.959 72.482 137.731C72.4828 137.502 72.4383 137.276 72.3507 137.064Z" fill="white"/>
<path d="M119.181 122.023C119.344 122.973 119.119 123.947 118.557 124.733C117.995 125.518 117.141 126.051 116.182 126.213L85.0746 131.454C84.1265 131.593 83.1613 131.358 82.3858 130.8C81.6103 130.242 81.0862 129.406 80.9258 128.47C80.7653 127.534 80.9812 126.573 81.5274 125.793C82.0735 125.013 82.9063 124.476 83.8475 124.296L114.952 119.052C115.91 118.893 116.893 119.116 117.686 119.673C118.478 120.23 119.016 121.075 119.181 122.023Z" fill="#3F3D56"/>
<path d="M151.921 156.163C151.472 156.607 150.864 156.856 150.23 156.856C149.596 156.856 148.988 156.607 148.539 156.163L115.054 123.267C114.616 122.822 114.372 122.225 114.375 121.604C114.378 120.983 114.627 120.388 115.068 119.947C115.51 119.506 116.108 119.254 116.735 119.246C117.362 119.238 117.967 119.475 118.42 119.905L151.908 152.816C152.357 153.259 152.61 153.86 152.612 154.487C152.615 155.114 152.366 155.717 151.921 156.163Z" fill="#3F3D56"/>
<path d="M116.746 126.993C119.034 126.993 120.889 125.155 120.889 122.888C120.889 120.621 119.034 118.784 116.746 118.784C114.458 118.784 112.603 120.621 112.603 122.888C112.603 125.155 114.458 126.993 116.746 126.993Z" fill="#CCCCCC"/>
<path d="M88.2073 51.7133C81.8328 61.6178 72.1435 68.1912 60.1753 72.5104C59.9389 72.6861 59.6699 72.8139 59.3836 72.8865C59.0973 72.9591 58.7995 72.975 58.507 72.9333C58.2145 72.8917 57.9331 72.7933 57.679 72.6438C57.425 72.4943 57.2032 72.2966 57.0263 72.0621C50.5243 63.4648 51.9936 51.1766 60.5737 44.5936C64.7261 41.4235 69.979 40.0159 75.1784 40.6801C80.3778 41.3444 85.0983 44.0261 88.3029 48.1361L88.4622 48.3445L88.6439 48.5813C88.8237 48.815 88.9551 49.0816 89.0305 49.3658C89.1059 49.65 89.1238 49.9462 89.0832 50.2373C89.0426 50.5283 88.9444 50.8086 88.794 51.0619C88.6437 51.3152 88.4443 51.5366 88.2073 51.7133Z" fill="#BDC9E5"/>
<path d="M145.014 48.3571C146.573 46.2987 148.526 44.5647 150.762 43.2542C152.998 41.9437 155.473 41.0823 158.045 40.7193C160.617 40.3564 163.236 40.4989 165.753 41.1387C168.269 41.7785 170.633 42.9032 172.711 44.4484L172.921 44.6062C181.501 51.1766 182.968 63.4648 176.469 72.0747C176.111 72.5477 175.579 72.8606 174.988 72.9447C174.398 73.0287 173.797 72.8771 173.32 72.523C162.209 68.3112 153.097 61.0179 145.288 51.7259C144.81 51.3716 144.494 50.844 144.41 50.2591C144.325 49.6741 144.478 49.0797 144.835 48.6065L145.014 48.3571Z" fill="#BDC9E5"/>
<path d="M142.228 181.696C141.822 181.921 141.523 182.297 141.396 182.74C141.27 183.183 141.326 183.658 141.552 184.061L151.669 201.969C151.897 202.368 152.276 202.662 152.722 202.786C153.168 202.91 153.646 202.853 154.05 202.629C154.454 202.405 154.753 202.031 154.88 201.59C155.007 201.149 154.953 200.675 154.728 200.273L144.612 182.362C144.384 181.962 144.006 181.667 143.559 181.542C143.112 181.417 142.634 181.472 142.228 181.696Z" fill="#BDC9E5"/>
<path d="M88.8798 182.362L78.7666 200.273C78.5425 200.675 78.488 201.149 78.6151 201.59C78.7423 202.031 79.0407 202.405 79.4451 202.629C79.8495 202.853 80.327 202.91 80.7732 202.786C81.2195 202.662 81.5982 202.368 81.8264 201.969L91.9428 184.061C92.1702 183.659 92.227 183.184 92.1009 182.74C91.9748 182.297 91.676 181.921 91.2702 181.696C90.8645 181.471 90.3851 181.414 89.9374 181.539C89.4897 181.664 89.1104 181.96 88.883 182.362H88.8798Z" fill="#BDC9E5"/>
<path d="M153.718 206.556C156.711 206.556 159.136 204.153 159.136 201.189C159.136 198.225 156.711 195.822 153.718 195.822C150.726 195.822 148.3 198.225 148.3 201.189C148.3 204.153 150.726 206.556 153.718 206.556Z" fill="#BDC9E5"/>
<path d="M157.543 69.2142C160.536 69.2142 162.962 66.8111 162.962 63.8468C162.962 60.8825 160.536 58.4794 157.543 58.4794C154.551 58.4794 152.125 60.8825 152.125 63.8468C152.125 66.8111 154.551 69.2142 157.543 69.2142Z" fill="#BDC9E5"/>
<path d="M116.427 56.585C119.42 56.585 121.845 54.182 121.845 51.2176C121.845 48.2533 119.42 45.8502 116.427 45.8502C113.435 45.8502 111.009 48.2533 111.009 51.2176C111.009 54.182 113.435 56.585 116.427 56.585Z" fill="#BDC9E5"/>
<path d="M77.224 68.5827C80.2165 68.5827 82.6424 66.1797 82.6424 63.2153C82.6424 60.251 80.2165 57.8479 77.224 57.8479C74.2315 57.8479 71.8057 60.251 71.8057 63.2153C71.8057 66.1797 74.2315 68.5827 77.224 68.5827Z" fill="#BDC9E5"/>
<path d="M80.7299 206.556C83.7223 206.556 86.1482 204.153 86.1482 201.189C86.1482 198.225 83.7223 195.822 80.7299 195.822C77.7374 195.822 75.3115 198.225 75.3115 201.189C75.3115 204.153 77.7374 206.556 80.7299 206.556Z" fill="#BDC9E5"/>
<path d="M149.469 153.145C149.661 153.442 149.91 153.7 150.202 153.903C150.494 154.105 150.823 154.249 151.172 154.325C151.52 154.401 151.88 154.409 152.231 154.347C152.582 154.285 152.917 154.156 153.218 153.965C153.352 153.88 153.479 153.782 153.597 153.675L162.097 158.187L161.635 153.23L153.632 149.703C153.148 149.247 152.511 148.983 151.844 148.961C151.176 148.939 150.524 149.16 150.01 149.583C149.496 150.006 149.156 150.6 149.056 151.255C148.955 151.909 149.1 152.577 149.463 153.132L149.469 153.145Z" fill="#FFB7B7"/>
<path d="M155.663 154.872L158.997 150.316L175.048 157.833L195.019 154.12C196.007 153.934 197.024 153.967 197.997 154.215C198.971 154.463 199.877 154.921 200.651 155.556C201.425 156.191 202.048 156.988 202.476 157.889C202.903 158.79 203.125 159.774 203.125 160.769C203.126 162.567 202.408 164.291 201.127 165.565C199.847 166.838 198.109 167.556 196.294 167.561L173.407 167.602L155.663 154.872Z" fill="#3F3D56"/>
<path d="M150.531 233.561L147.162 231.963L151.793 218.005L156.765 220.363L150.531 233.561Z" fill="#FFB7B7"/>
<path d="M173.132 231.31L172.392 231.761C171.902 232.061 171.404 232.355 170.907 232.642L170.152 233.075H170.133L169.753 233.169L169.205 231.736L168.953 231.076L168.596 230.129L167.943 228.418L164.504 219.441L169.855 218.134L170.056 218.946L170.155 219.35L172.026 226.861L172.408 228.396V228.443L172.641 229.358L172.839 230.154L173.059 231.041L173.132 231.31Z" fill="#FFB7B7"/>
<path d="M205.053 199.696C204.713 200.237 204.367 200.773 204.017 201.306C203.379 202.297 202.713 203.274 202.018 204.236C201.619 204.601 201.178 204.919 200.705 205.183L200.641 205.218C200.295 205.411 199.924 205.558 199.539 205.657L199.121 205.761C198.621 205.878 198.124 205.979 197.633 206.077C196.756 206.231 195.889 206.342 195.026 206.411L194.818 206.427C191.277 206.686 187.825 206.272 184.227 205.59C182.449 205.259 180.635 204.858 178.755 204.444C178.139 204.305 177.524 204.173 176.9 204.037L176.753 204.005C175.861 203.81 174.955 203.62 174.028 203.431C172.858 203.194 171.653 202.963 170.401 202.742L170.49 204.492C170.565 205.837 170.846 207.164 171.325 208.426C171.86 209.976 172.281 211.201 171.389 213.755L170.959 214.99C171.182 215.604 171.258 216.261 171.182 216.909C171.107 217.558 170.881 218.18 170.522 218.728L170.436 218.857L174.028 227.862L174.261 228.443H166.321L160.788 217.446L160.523 216.919V216.893L161.094 195.759C161.094 195.572 161.116 195.383 161.142 195.197C161.243 194.349 161.513 193.529 161.937 192.786C162.362 192.043 162.931 191.391 163.612 190.868C164.264 190.362 165.01 189.99 165.809 189.773C166.607 189.556 167.441 189.499 168.262 189.605L170.159 189.848L174.028 190.344L176.753 190.694H176.807L184.849 191.727L185.425 189.397L185.531 189.356L188.916 188.127L200.622 183.878H200.654L201.422 183.6L201.515 183.748L201.595 183.878C202.355 185.23 202.975 186.656 203.443 188.134C204.231 190.545 204.88 192.999 205.387 195.484C205.41 195.591 205.429 195.689 205.448 195.777V195.806C205.451 195.832 205.457 195.857 205.464 195.882C205.735 196.99 205.547 198.351 205.053 199.696Z" fill="#2F2E41"/>
<path d="M205.546 191.907C205.508 191.752 205.46 191.591 205.412 191.436C205.02 190.266 204.562 189.118 204.042 187.998C203.455 186.735 202.767 185.355 201.922 183.893C201.516 183.176 201.082 182.431 200.619 181.658C200.387 181.269 200.145 180.874 199.892 180.474C199.883 180.455 199.872 180.437 199.86 180.42L199.79 180.3L188.204 181.838L183.892 182.41L183.634 184.538L183.573 185.065L183.401 186.501L183.168 188.396H183.149L176.749 187.575L170.152 186.729L166.611 186.274C165.789 186.168 164.955 186.225 164.156 186.442C163.357 186.659 162.609 187.031 161.957 187.537C161.276 188.059 160.707 188.711 160.282 189.453C159.858 190.196 159.588 191.015 159.487 191.862C159.465 192.036 159.452 192.21 159.442 192.387L156.099 200.232C154.1 204.925 152.827 209.889 152.322 214.958L149.871 222.722L150.218 222.753L155.414 223.233L156.787 223.36L159.806 218.99C160.15 218.494 160.478 217.98 160.784 217.455C161.285 216.598 161.73 215.711 162.117 214.797L168.65 199.393L170.152 199.639C172.444 200.005 174.643 200.305 176.749 200.539C183.599 201.296 189.533 201.356 194.815 200.712C196.302 200.531 197.735 200.296 199.114 200.005C199.624 199.901 200.125 199.787 200.619 199.664L200.963 199.582C201.988 199.32 202.93 198.806 203.702 198.089C204.475 197.372 205.053 196.474 205.384 195.478C205.779 194.327 205.835 193.088 205.546 191.907Z" fill="#2F2E41"/>
<path d="M151.608 231.281L147.962 229.548L147.388 229.276L146.477 231.486L140.102 232.876C139.791 232.947 139.51 233.115 139.301 233.354C139.092 233.593 138.964 233.892 138.936 234.207C138.909 234.522 138.983 234.838 139.147 235.11C139.312 235.381 139.559 235.594 139.854 235.717L146.085 238.243L148.064 236.478L147.58 238.846L149.925 239.793L152.498 231.682L151.608 231.281Z" fill="#2F2E41"/>
<path d="M174.024 227.859L174.257 228.443H174.024V227.859Z" fill="#2F2E41"/>
<path d="M172.752 228.566L168.928 229.876L168.329 230.081L169.259 232.292L165.715 237.725C165.536 237.994 165.449 238.312 165.466 238.633C165.484 238.954 165.605 239.262 165.812 239.509C166.019 239.757 166.301 239.932 166.617 240.009C166.932 240.086 167.264 240.06 167.564 239.935L173.782 237.381L173.935 234.748L175.27 236.769L177.613 235.821L173.683 228.247L172.752 228.566Z" fill="#2F2E41"/>
<path d="M204.593 195.462C204.371 195.459 204.152 195.404 203.956 195.301L183.787 184.863L183.554 183.916L183.114 180.922V180.897L185.027 172.136C184.992 172.06 184.918 171.937 184.835 171.798C183.978 170.361 181.374 165.988 186.346 159.964L195.076 149.88L202.572 149.564L202.655 149.672C204.66 152.163 206.011 155.106 206.59 158.24C207.169 161.374 206.957 164.6 205.973 167.633L205.196 181.592L206.031 184.411C206.524 186.073 206.443 187.851 205.801 189.463L205.992 194.028C206 194.211 205.97 194.394 205.906 194.565C205.842 194.737 205.745 194.895 205.619 195.029C205.494 195.163 205.343 195.272 205.175 195.348C205.007 195.425 204.826 195.467 204.641 195.474L204.593 195.462Z" fill="#3F3D56"/>
<path d="M187.098 206.973C187.405 206.794 187.674 206.557 187.888 206.275C188.103 205.992 188.259 205.671 188.348 205.329C188.437 204.987 188.456 204.631 188.406 204.282C188.356 203.932 188.236 203.596 188.054 203.292C187.974 203.155 187.882 203.026 187.777 202.907L192.625 194.647L187.621 194.925L183.796 202.727C183.319 203.19 183.031 203.811 182.985 204.471C182.939 205.132 183.14 205.786 183.548 206.309C183.957 206.833 184.546 207.19 185.202 207.312C185.859 207.434 186.538 207.314 187.111 206.973H187.098Z" fill="#FFB7B7"/>
<path d="M189.046 200.905L184.584 197.432L192.727 181.803L189.677 161.912C189.526 160.929 189.595 159.924 189.88 158.97C190.165 158.016 190.659 157.135 191.326 156.391C191.993 155.648 192.818 155.058 193.741 154.666C194.664 154.273 195.663 154.087 196.667 154.12C198.479 154.184 200.192 154.956 201.43 156.269C202.668 157.582 203.33 159.328 203.271 161.123L202.519 183.783L189.046 200.905Z" fill="#3F3D56"/>
<path d="M190.27 145.693V138.346C190.27 135.735 191.317 133.231 193.18 131.385C195.044 129.539 197.572 128.502 200.207 128.502C202.843 128.502 205.371 129.539 207.235 131.385C209.098 133.231 210.145 135.735 210.145 138.346C211.895 141.961 210.799 143.682 210.145 145.693C210.144 146.044 210.002 146.379 209.752 146.627C209.502 146.875 209.163 147.015 208.81 147.016H191.599C191.246 147.013 190.909 146.872 190.66 146.625C190.412 146.377 190.271 146.043 190.27 145.693Z" fill="#E26D52"/>
<path d="M204.327 140.361C204.985 136.344 202.231 132.559 198.176 131.907C194.121 131.255 190.299 133.983 189.641 138C188.983 142.017 191.737 145.802 195.792 146.454C199.848 147.107 203.669 144.379 204.327 140.361Z" fill="#FFB7B7"/>
<path d="M204.734 141.103L204.533 141.065L201.056 140.455L200.947 137.857L199.548 140.184C196.361 141.235 193.358 140.642 190.544 139.328C189.616 138.891 188.716 138.4 187.848 137.857C188.086 136.421 188.644 135.055 189.482 133.859C190.32 132.664 191.417 131.668 192.692 130.946C192.797 130.886 192.899 130.835 193.011 130.781C193.193 130.696 193.378 130.617 193.562 130.541C195.007 129.981 196.583 129.839 198.107 130.131C199.63 130.424 201.039 131.139 202.168 132.193C204.431 134.34 205.454 137.885 204.734 141.103Z" fill="#E26D52"/>
</g>
<defs>
<clipPath id="clip0_4199_243">
<rect width="271" height="249" fill="white"/>
</clipPath>
</defs>
</svg>
